<?xml version="1.0" encoding="utf-8"?>
<!-- Generator: Adobe Illustrator 25.4.2, SVG Export Plug-In . SVG Version: 6.00 Build 0)  -->
<svg version="1.1" id="레이어_1" xmlns="http://www.w3.org/2000/svg" xmlns:xlink="http://www.w3.org/1999/xlink" x="0px"
	 y="0px" viewBox="0 0 28 28" style="enable-background:new 0 0 28 28;" xml:space="preserve">
<style type="text/css">
	.st0{fill:#FFFFFF;}
</style>
<g>
	<path class="st0" d="M7.5,11.2c-0.7,0-1.2,0.5-1.2,1.2v2c0,0.7,0.5,1.2,1.2,1.2c0.7,0,1.2-0.5,1.2-1.2v-2
		C8.7,11.7,8.2,11.2,7.5,11.2z"/>
	<path class="st0" d="M11.8,11.2c-0.7,0-1.2,0.5-1.2,1.2v2c0,0.7,0.5,1.2,1.2,1.2c0.7,0,1.2-0.5,1.2-1.2v-2
		C13,11.7,12.5,11.2,11.8,11.2z"/>
	<path class="st0" d="M14,0C6.3,0,0,6.3,0,14s6.3,14,14,14s14-6.3,14-14S21.7,0,14,0z M13.8,23.5h-0.6c-5.1,0-9.9-4.4-9.8-9.5
		c0.1-5,4.2-9,9.2-9c5,0,9.1,4.1,9.1,9.2H24c0.1,0,0.2,0,0.3,0c0.7,0.1,1.1,0.8,1,1.5C24.3,20,18.3,23.5,13.8,23.5z"/>
</g>
</svg>
