<?xml version="1.0" encoding="utf-8"?>
<!-- Generator: Adobe Illustrator 25.4.2, SVG Export Plug-In . SVG Version: 6.00 Build 0)  -->
<svg version="1.1" id="레이어_1" xmlns="http://www.w3.org/2000/svg" xmlns:xlink="http://www.w3.org/1999/xlink" x="0px"
	 y="0px" viewBox="0 0 50 53" style="enable-background:new 0 0 50 53;" xml:space="preserve">
<style type="text/css">
	.st0{fill:#FFFFFF;}
</style>
<g>
	<path class="st0" d="M50,26.5C50,11.9,38.8,0,25,0C38.8,0,50,11.9,50,26.5z"/>
	<path class="st0" d="M25,6.6c-10.4,0-18.8,8.9-18.8,19.9c0,11,8.4,19.9,18.8,19.9s18.8-8.9,18.8-19.9C43.8,15.5,35.4,6.6,25,6.6z
		 M33.8,18.8c0,3.3-1.6,6.1-3.9,7.7c2.3,1.6,3.9,4.4,3.9,7.7v4.2c0,0.7-0.6,1.3-1.3,1.3c-0.7,0-1.3-0.6-1.3-1.3h-5
		c-0.7,0-1.3-0.6-1.3-1.3s0.6-1.3,1.3-1.3h5v-1.3h-5c-0.7,0-1.3-0.6-1.3-1.3c0-0.7,0.6-1.3,1.3-1.3h4.6c-0.8-2.3-2.9-4-5.2-4h-1.3
		c-3.1,0-5.6,2.9-5.6,6.4v4.2c0,0.7-0.6,1.3-1.3,1.3c-0.7,0-1.3-0.6-1.3-1.3v-4.2c0-3.3,1.6-6.1,3.9-7.7c-2.3-1.6-3.9-4.4-3.9-7.7
		v-4.2c0-0.7,0.6-1.3,1.3-1.3c0.7,0,1.3,0.6,1.3,1.3h5c0.7,0,1.3,0.6,1.3,1.3c0,0.7-0.6,1.3-1.3,1.3h-5v1.3h5c0.7,0,1.3,0.6,1.3,1.3
		c0,0.7-0.6,1.3-1.3,1.3h-4.6c0.8,2.3,2.9,4,5.2,4h1.3c3.1,0,5.6-2.9,5.6-6.4v-4.2c0-0.7,0.6-1.3,1.3-1.3c0.7,0,1.3,0.6,1.3,1.3
		V18.8z"/>
	<path class="st0" d="M50,26.5C50,11.9,38.8,0,25,0S0,11.9,0,26.5C0,41.1,11.2,53,25,53S50,41.1,50,26.5z M25,49.7
		c-12.1,0-21.9-10.4-21.9-23.2C3.1,13.7,12.9,3.3,25,3.3s21.9,10.4,21.9,23.2C46.9,39.3,37.1,49.7,25,49.7z"/>
</g>
</svg>
