<?xml version="1.0" encoding="utf-8"?>
<!-- Generator: Adobe Illustrator 25.4.2, SVG Export Plug-In . SVG Version: 6.00 Build 0)  -->
<svg version="1.1" id="레이어_1" xmlns="http://www.w3.org/2000/svg" xmlns:xlink="http://www.w3.org/1999/xlink" x="0px"
	 y="0px" viewBox="0 0 36.8 36.8" style="enable-background:new 0 0 36.8 36.8;" xml:space="preserve">
<style type="text/css">
	.st0{fill:#333333;}
</style>
<g>
	<polygon class="st0" points="7.4,36.8 29.4,36.8 18.5,27.6 	"/>
	<path class="st0" d="M35,3.7h-1.8h-3.7V1.8c0-1-0.8-1.8-1.8-1.8H9.2c-1,0-1.8,0.8-1.8,1.8v1.8H3.7H1.8C0.8,3.7,0,4.5,0,5.5v1.8v9.2
		v1.8c0,1,0.8,1.8,1.8,1.8h1.8h3.7h0.1l11.1,7.4l10.9-7.4h3.7H35c1,0,1.8-0.8,1.8-1.8v-1.8V7.4V5.5C36.8,4.5,36,3.7,35,3.7z
		 M3.7,16.6V7.4h3.7v9.2H3.7z M22.9,18.4l-4.5-2.5l-4.5,2.5l0.9-5.3L11,9.3l5.1-0.8l2.3-4.8l2.3,4.8l5.1,0.8l-3.7,3.8L22.9,18.4z
		 M29.4,16.6V7.4h3.7l0,9.2H29.4z"/>
</g>
</svg>
