<?xml version="1.0" encoding="utf-8"?>
<!-- Generator: Adobe Illustrator 25.4.2, SVG Export Plug-In . SVG Version: 6.00 Build 0)  -->
<svg version="1.1" id="레이어_1" xmlns="http://www.w3.org/2000/svg" xmlns:xlink="http://www.w3.org/1999/xlink" x="0px"
	 y="0px" viewBox="0 0 60 40.1" style="enable-background:new 0 0 60 40.1;" xml:space="preserve">
<style type="text/css">
	.st0{fill:#999999;}
</style>
<g>
	<g>
		<path class="st0" d="M46,0H14c-2.2,0-4,1.8-4,4v32c0,2.2,1.8,4,4,4h32c2.2,0,4-1.8,4-4V4C50,1.8,48.1,0,46,0z M41,4.1
			c0.6,0,1,0.4,1,1c0,0.5-0.4,1-1,1s-1-0.4-1-1S40.4,4.1,41,4.1z M37,4.1c0.6,0,1,0.4,1,1c0,0.5-0.4,1-1,1s-1-0.4-1-1
			S36.4,4.1,37,4.1z M15,4.1h18c0.6,0,1,0.4,1,1s-0.4,1-1,1H15c-0.6,0-1-0.4-1-1S14.4,4.1,15,4.1z M46,36H14V10h32V36z M45,6
			c-0.6,0-1-0.4-1-1c0-0.5,0.4-1,1-1s1,0.4,1,1S45.5,6,45,6z"/>
		<g>
			<path class="st0" d="M19,25.9h0.4c0.1,0,0.2-0.1,0.3-0.2l1.3-3.9l1.3,3.9c0,0.1,0.2,0.2,0.3,0.2H23c0.1,0,0.2-0.1,0.3-0.2
				l1.7-5.3c0-0.1,0-0.2,0-0.3C24.9,20,24.8,20,24.7,20h-0.4c-0.1,0-0.2,0.1-0.3,0.2l-1.3,3.9l-1.3-3.9c0-0.1-0.2-0.2-0.3-0.2h-0.4
				c-0.1,0-0.2,0.1-0.3,0.2l-1.3,3.9l-1.3-3.9c0-0.1-0.2-0.2-0.3-0.2h-0.4c-0.1,0-0.2,0.1-0.3,0.1c-0.1,0.1-0.1,0.2,0,0.3l1.7,5.3
				C18.8,25.9,18.9,25.9,19,25.9z"/>
			<path class="st0" d="M28,25.9h0.4c0.1,0,0.2-0.1,0.3-0.2l1.3-3.9l1.3,3.9c0,0.1,0.2,0.2,0.3,0.2H32c0.1,0,0.2-0.1,0.3-0.2
				l1.7-5.3c0-0.1,0-0.2,0-0.3C33.9,20,33.8,20,33.7,20h-0.4c-0.1,0-0.2,0.1-0.3,0.2l-1.3,3.9l-1.3-3.9c0-0.1-0.2-0.2-0.3-0.2h-0.4
				c-0.1,0-0.2,0.1-0.3,0.2l-1.3,3.9l-1.3-3.9c0-0.1-0.2-0.2-0.3-0.2h-0.4c-0.1,0-0.2,0.1-0.3,0.1c-0.1,0.1-0.1,0.2,0,0.3l1.7,5.3
				C27.8,25.9,27.9,25.9,28,25.9z"/>
			<path class="st0" d="M37,25.9h0.4c0.1,0,0.2-0.1,0.3-0.2l1.3-3.9l1.3,3.9c0,0.1,0.2,0.2,0.3,0.2H41c0.1,0,0.2-0.1,0.3-0.2
				l1.7-5.3c0-0.1,0-0.2,0-0.3C42.9,20,42.8,20,42.7,20h-0.4c-0.1,0-0.2,0.1-0.3,0.2l-1.3,3.9l-1.3-3.9c0-0.1-0.2-0.2-0.3-0.2h-0.4
				c-0.1,0-0.2,0.1-0.3,0.2l-1.3,3.9l-1.3-3.9c0-0.1-0.2-0.2-0.3-0.2h-0.4c-0.1,0-0.2,0.1-0.3,0.1c-0.1,0.1-0.1,0.2,0,0.3l1.7,5.3
				C36.8,25.9,36.9,25.9,37,25.9z"/>
		</g>
	</g>
</g>
</svg>
