<?xml version="1.0" encoding="utf-8"?>
<!-- Generator: Adobe Illustrator 25.4.2, SVG Export Plug-In . SVG Version: 6.00 Build 0)  -->
<svg version="1.1" id="레이어_1" xmlns="http://www.w3.org/2000/svg" xmlns:xlink="http://www.w3.org/1999/xlink" x="0px"
	 y="0px" viewBox="0 0 32 32" style="enable-background:new 0 0 32 32;" xml:space="preserve">
<style type="text/css">
	.st0{fill:#999999;}
</style>
<g>
	<path class="st0" d="M16,0C7.2,0,0,7.2,0,16s7.2,16,16,16s16-7.2,16-16S24.8,0,16,0z M16,28.8C8.9,28.8,3.2,23.1,3.2,16
		S8.9,3.2,16,3.2S28.8,8.9,28.8,16S23.1,28.8,16,28.8z"/>
	<path class="st0" d="M24,14.4h-5.2c-0.3-0.5-0.7-0.9-1.2-1.2V8c0-0.9-0.7-1.6-1.6-1.6S14.4,7.1,14.4,8v5.2c-1,0.6-1.6,1.6-1.6,2.8
		c0,1.8,1.4,3.2,3.2,3.2c1.2,0,2.2-0.6,2.8-1.6H24c0.9,0,1.6-0.7,1.6-1.6S24.9,14.4,24,14.4z"/>
</g>
</svg>
