<?xml version="1.0" encoding="utf-8"?>
<!-- Generator: Adobe Illustrator 25.4.2, SVG Export Plug-In . SVG Version: 6.00 Build 0)  -->
<svg version="1.1" id="레이어_1" xmlns="http://www.w3.org/2000/svg" xmlns:xlink="http://www.w3.org/1999/xlink" x="0px"
	 y="0px" viewBox="0 0 40 40" style="enable-background:new 0 0 40 40;" xml:space="preserve">
<style type="text/css">
	.st0{fill:#999999;}
</style>
<g>
	<path class="st0" d="M22.3,18.9H20h-1.1h-1.1c-1.9,0-3.4-1.3-3.4-2.9s1.5-2.9,3.4-2.9h8c0.6,0,1.1-0.5,1.1-1.1
		c0-0.6-0.5-1.1-1.1-1.1h-4.6V7.4h-2.3v3.4h-1.1c-3.2,0-5.7,2.3-5.7,5.1c0,2.8,2.6,5.1,5.7,5.1h1.1H20h2.3c1.9,0,3.4,1.3,3.4,2.9
		s-1.5,2.9-3.4,2.9h-8c-0.6,0-1.1,0.5-1.1,1.1s0.5,1.1,1.1,1.1h4.6v3.4h2.3v-3.4h1.1c3.2,0,5.7-2.3,5.7-5.1
		C28,21.2,25.4,18.9,22.3,18.9z"/>
	<path class="st0" d="M20,0C9,0,0,9,0,20c0,11,9,20,20,20s20-9,20-20C40,9,31,0,20,0z M20,36c-8.8,0-16-7.2-16-16S11.2,4,20,4
		s16,7.2,16,16S28.8,36,20,36z"/>
</g>
</svg>
