<?xml version="1.0" encoding="utf-8"?>
<!-- Generator: Adobe Illustrator 25.4.2, SVG Export Plug-In . SVG Version: 6.00 Build 0)  -->
<svg version="1.1" id="레이어_1" xmlns="http://www.w3.org/2000/svg" xmlns:xlink="http://www.w3.org/1999/xlink" x="0px"
	 y="0px" viewBox="0 0 60 40.1" style="enable-background:new 0 0 60 40.1;" xml:space="preserve">
<style type="text/css">
	.st0{fill:#C7C7C7;}
</style>
<g>
	<g>
		<path class="st0" d="M30,5.1l3.1,9.6l0.7,2.1H36h10.1l-8.2,5.9l-1.8,1.3l0.7,2.1l3.1,9.6l-8.2-5.9L30,28.4l-1.8,1.3L20,35.6
			l3.1-9.6l0.7-2.1l-1.8-1.3l-8.2-5.9H24h2.2l0.7-2.1L30,5.1 M30,0.1c-0.9,0-1.7,0.6-2,1.4l-4,12.2H11.1c-0.9,0-1.7,0.6-2,1.4
			s0,1.8,0.8,2.3l10.5,7.5l-4,12.2c-0.3,0.9,0,1.8,0.8,2.3c0.4,0.3,0.8,0.4,1.2,0.4c0.4,0,0.9-0.1,1.2-0.4L30,32.1l10.5,7.5
			c0.4,0.3,0.8,0.4,1.2,0.4s0.9-0.1,1.2-0.4c0.7-0.5,1-1.5,0.8-2.3l-4-12.2l10.5-7.5c0.7-0.5,1-1.5,0.8-2.3c-0.3-0.9-1.1-1.4-2-1.4
			H36L32,1.5C31.7,0.7,30.9,0.1,30,0.1L30,0.1z"/>
	</g>
</g>
</svg>
