<?xml version="1.0" encoding="utf-8"?>
<!-- Generator: Adobe Illustrator 25.4.2, SVG Export Plug-In . SVG Version: 6.00 Build 0)  -->
<svg version="1.1" id="레이어_1" xmlns="http://www.w3.org/2000/svg" xmlns:xlink="http://www.w3.org/1999/xlink" x="0px"
	 y="0px" viewBox="0 0 27.2 24" style="enable-background:new 0 0 27.2 24;" xml:space="preserve">
<style type="text/css">
	.st0{fill:#C7C7C7;}
</style>
<g>
	<path class="st0" d="M20.1,2c2.9,0,5.3,2.7,5.3,6c0,5.6-8.2,11.6-11.6,13.7c-3.4-2-11.6-8-11.6-13.7c0-3.3,2.4-6,5.3-6
		C9.3,2,11,3.2,12,5.1l1.8,3.6l1.8-3.6C16.5,3.2,18.2,2,20.1,2 M20.1,0c-2.7,0-5.1,1.7-6.3,4.2C12.5,1.7,10.1,0,7.4,0
		c-4,0-7.3,3.6-7.3,8c0,7.5,11,14.6,13.4,15.9c0.1,0,0.1,0.1,0.2,0.1c0.1,0,0.1-0.1,0.2-0.1c2.4-1.3,13.4-8.4,13.4-15.9
		C27.4,3.6,24.1,0,20.1,0L20.1,0z"/>
</g>
</svg>
