<?xml version="1.0" encoding="utf-8"?>
<!-- Generator: Adobe Illustrator 25.4.2, SVG Export Plug-In . SVG Version: 6.00 Build 0)  -->
<svg version="1.1" id="레이어_1" xmlns="http://www.w3.org/2000/svg" xmlns:xlink="http://www.w3.org/1999/xlink" x="0px"
	 y="0px" viewBox="0 0 60 40.1" style="enable-background:new 0 0 60 40.1;" xml:space="preserve">
<style type="text/css">
	.st0{fill:#FFFFFF;}
</style>
<g>
	<g>
		<path class="st0" d="M9.5,16.9l1.1,0.8l0,0l0.9,0.7l2.7,2l4.2,3.1c0.6,0,1.1,0.1,1.7,0.1c3.2,0.2,6.6,0.3,10,0.3
			c3.1,0,6.2-0.1,9.2-0.2c0.5,0,1.1-0.1,1.6-0.1l0,0l1.7-1.2l2.8-2l1.7-1.2l1-0.7l0.4-0.3l0.5-0.4l1-0.7c0.6-0.4,0.8-1.1,0.6-1.8
			c-0.2-0.6-0.8-1.1-1.5-1.1H35.4l-4.2-13C31,0.5,30.4,0,29.7,0s-1.3,0.4-1.5,1.1l-4.2,13H10.4c-0.7,0-1.3,0.4-1.5,1.1
			C8.6,15.7,9,16.5,9.5,16.9z"/>
		<path class="st0" d="M49.8,20.6l-2.7,2c0.3,0,0.7,0.1,1,0.1c4.7,0.5,6.7,1.2,7.5,1.5c-0.9,0.4-2.9,1-7.5,1.5
			c-1.7,0.2-3.6,0.4-5.6,0.5c-1,0.1-1.9,0.1-3,0.2c-3,0.1-6.1,0.2-9.3,0.2c-3.5,0-7-0.1-10.2-0.3l0,0c-1-0.1-2-0.1-2.9-0.2
			c-1.7-0.1-3.3-0.3-4.8-0.4c-4.7-0.5-6.7-1.2-7.5-1.5c0.9-0.4,2.9-1,7.5-1.5c0.1,0,0.2,0,0.2,0l-2.7-2c-6.9,1-7.9,2.3-7.9,3.5
			c0,1.3,1.1,2.6,8.9,3.7c1.7,0.2,3.5,0.4,5.4,0.6c1,0.1,1.9,0.1,2.9,0.2l-0.9,2.8l-2.1,6.4c-0.2,0.6,0,1.4,0.6,1.8
			c0.6,0.4,1.3,0.4,1.9,0l10.8-7.9l0.2-0.2l0.2,0.2l10.8,7.9c0.3,0.2,0.6,0.3,0.9,0.3c0.3,0,0.6-0.1,0.9-0.3
			c0.6-0.4,0.8-1.1,0.6-1.8l-2.1-6.4L40,28.7c1-0.1,2-0.1,2.9-0.2c2.3-0.2,4.4-0.4,6.3-0.6c7.8-1,8.9-2.4,8.9-3.7
			C58.4,23,57.4,21.6,49.8,20.6z"/>
	</g>
</g>
</svg>
