<?xml version="1.0" encoding="utf-8"?>
<!-- Generator: Adobe Illustrator 25.4.2, SVG Export Plug-In . SVG Version: 6.00 Build 0)  -->
<svg version="1.1" id="레이어_1" xmlns="http://www.w3.org/2000/svg" xmlns:xlink="http://www.w3.org/1999/xlink" x="0px"
	 y="0px" viewBox="0 0 24 24" style="enable-background:new 0 0 24 24;" xml:space="preserve">
<style type="text/css">
	.st0{fill:#333333;}
</style>
<g>
	<path class="st0" d="M23.9,11.6c0,0,0-0.1,0-0.1c-0.1-0.1-0.1-0.3-0.2-0.4l-3.6-3.6c-0.5-0.5-1.2-0.5-1.7,0s-0.5,1.2,0,1.7l1.6,1.6
		H12c-0.7,0-1.2,0.5-1.2,1.2s0.5,1.2,1.2,1.2h7.9l-1.6,1.6c-0.5,0.5-0.5,1.2,0,1.7c0.2,0.2,0.5,0.4,0.8,0.4s0.6-0.1,0.8-0.4l3.6-3.6
		c0,0,0,0,0,0c0.1-0.1,0.2-0.2,0.2-0.4c0,0,0,0,0,0c0,0,0,0,0,0c0-0.1,0.1-0.3,0.1-0.4c0,0,0-0.1,0-0.1C24,11.8,24,11.7,23.9,11.6z"
		/>
	<g>
		<path class="st0" d="M14.4,16.8v3.6c0,0.7-0.5,1.2-1.2,1.2H3.6c-0.7,0-1.2-0.5-1.2-1.2V3.6c0-0.7,0.5-1.2,1.2-1.2h9.6
			c0.7,0,1.2,0.5,1.2,1.2v3.6h2.4V3.6c0-2-1.6-3.6-3.6-3.6H3.6C1.6,0,0,1.6,0,3.6v16.8c0,2,1.6,3.6,3.6,3.6h9.6c2,0,3.6-1.6,3.6-3.6
			v-3.6H14.4z"/>
	</g>
</g>
</svg>
