<?xml version="1.0" encoding="utf-8"?>
<!-- Generator: Adobe Illustrator 25.4.2, SVG Export Plug-In . SVG Version: 6.00 Build 0)  -->
<svg version="1.1" id="레이어_1" xmlns="http://www.w3.org/2000/svg" xmlns:xlink="http://www.w3.org/1999/xlink" x="0px"
	 y="0px" viewBox="0 0 28 28" style="enable-background:new 0 0 28 28;" xml:space="preserve">
<style type="text/css">
	.st0{fill:#00B4E6;}
</style>
<path class="st0" d="M22.4,16.8c-0.4,0-0.8,0-1.1,0.1c-0.7,0.1-1.4,0.4-2,0.8c-0.3,0.2-0.6,0.4-0.8,0.7c-0.3,0.3-0.5,0.6-0.7,0.9
	l-6.9-3.5c0.2-0.6,0.3-1.2,0.3-1.8s-0.1-1.2-0.3-1.8l6.9-3.5C18,9,18.2,9.2,18.5,9.5c0.3,0.3,0.5,0.5,0.8,0.7c0.6,0.4,1.3,0.7,2,0.8
	c0.4,0.1,0.7,0.1,1.1,0.1c3.1,0,5.6-2.5,5.6-5.6c0-3-2.5-5.5-5.6-5.5c-0.4,0-0.8,0-1.1,0.1c-0.7,0.1-1.4,0.4-2,0.8
	c-0.3,0.2-0.6,0.4-0.8,0.7c-0.5,0.5-0.9,1.1-1.2,1.8c-0.3,0.7-0.4,1.4-0.4,2.2c0,0.2,0,0.3,0.1,0.5L9.3,9.9C8.4,9,7,8.4,5.6,8.4
	c-0.4,0-0.8,0-1.1,0.1C3.7,8.7,3.1,9,2.5,9.4C2.2,9.6,1.9,9.8,1.6,10c-0.5,0.5-0.9,1.1-1.2,1.8S0,13.2,0,14s0.2,1.5,0.4,2.2
	c0.3,0.7,0.7,1.3,1.2,1.8c0.3,0.3,0.5,0.5,0.8,0.7c0.6,0.4,1.3,0.7,2,0.8c0.4,0.1,0.7,0.1,1.1,0.1c1.4,0,2.7-0.5,3.7-1.4l7.5,3.8
	c0,0.1,0,0.3,0,0.4c0,0.8,0.2,1.5,0.4,2.2c0.3,0.7,0.7,1.3,1.2,1.8c0.3,0.3,0.5,0.5,0.8,0.7c0.6,0.4,1.3,0.7,2,0.8
	C21.6,28,22,28,22.4,28c3.1,0,5.6-2.5,5.6-5.6S25.5,16.8,22.4,16.8z M22.4,2.8c1.5,0,2.8,1.3,2.8,2.8s-1.3,2.8-2.8,2.8
	c-0.8,0-1.5-0.4-2.1-0.9c-0.5-0.5-0.7-1.2-0.7-1.9c0-0.3,0.1-0.7,0.2-1C20.2,3.6,21.2,2.8,22.4,2.8z M5.6,16.8
	c-1.2,0-2.2-0.8-2.6-1.9c-0.1-0.3-0.2-0.6-0.2-0.9c0-0.3,0.1-0.7,0.2-1c0.4-1.1,1.4-1.8,2.6-1.8c0.3,0,0.5,0.1,0.8,0.1
	c1,0.3,1.8,1.1,1.9,2.2c0,0.2,0.1,0.3,0.1,0.5s0,0.4-0.1,0.5c-0.2,1-1,1.8-2,2.1C6.1,16.7,5.9,16.8,5.6,16.8z M23.3,25.1
	c-0.1,0-0.2,0.1-0.3,0.1c-0.2,0-0.4,0.1-0.6,0.1c-1.1,0-2.1-0.7-2.5-1.6c-0.2-0.4-0.3-0.7-0.3-1.2c0-0.7,0.3-1.3,0.7-1.8
	c0.5-0.6,1.3-1,2.1-1c1.5,0,2.8,1.3,2.8,2.8C25.2,23.6,24.4,24.7,23.3,25.1z"/>
</svg>
