<?xml version="1.0" encoding="utf-8"?>
<!-- Generator: Adobe Illustrator 25.4.2, SVG Export Plug-In . SVG Version: 6.00 Build 0)  -->
<svg version="1.1" id="레이어_1" xmlns="http://www.w3.org/2000/svg" xmlns:xlink="http://www.w3.org/1999/xlink" x="0px"
	 y="0px" viewBox="0 0 24 24" style="enable-background:new 0 0 24 24;" xml:space="preserve">
<style type="text/css">
	.st0{fill:#C7C7C7;}
</style>
<g>
	<path class="st0" d="M18,10.8h-4.8V6c0-0.7-0.5-1.2-1.2-1.2S10.8,5.3,10.8,6v4.8H6c-0.7,0-1.2,0.5-1.2,1.2s0.5,1.2,1.2,1.2h4.8V18
		c0,0.7,0.5,1.2,1.2,1.2s1.2-0.5,1.2-1.2v-4.8H18c0.7,0,1.2-0.5,1.2-1.2S18.7,10.8,18,10.8z"/>
	<path class="st0" d="M12,24C5.4,24,0,18.6,0,12S5.4,0,12,0s12,5.4,12,12S18.6,24,12,24z M12,2.4c-5.3,0-9.6,4.3-9.6,9.6
		s4.3,9.6,9.6,9.6s9.6-4.3,9.6-9.6S17.3,2.4,12,2.4z"/>
</g>
</svg>
