<?xml version="1.0" encoding="utf-8"?>
<!-- Generator: Adobe Illustrator 25.4.2, SVG Export Plug-In . SVG Version: 6.00 Build 0)  -->
<svg version="1.1" id="레이어_1" xmlns="http://www.w3.org/2000/svg" xmlns:xlink="http://www.w3.org/1999/xlink" x="0px"
	 y="0px" viewBox="0 0 38 38" style="enable-background:new 0 0 38 38;" xml:space="preserve">
<style type="text/css">
	.st0{fill:#999999;}
</style>
<g>
	<path class="st0" d="M17.1,10.9c-1.5,0-2.9,0.6-4,1.7c-2.2,2.2-2.2,5.8,0,8.1c1.9,1.9,4.7,2.1,6.9,0.9c0.4-0.2,0.9-0.5,1.2-0.9
		c0.2-0.2,0.3-0.3,0.4-0.5c1.8-2.2,1.6-5.5-0.4-7.5C20,11.4,18.6,10.9,17.1,10.9z"/>
	<path class="st0" d="M32.3,0H5.7C2.6,0,0,2.6,0,5.7v26.6C0,35.4,2.6,38,5.7,38h26.6c3.1,0,5.7-2.6,5.7-5.7V5.7
		C38,2.6,35.4,0,32.3,0z M29.8,30c-0.4,0.4-0.9,0.6-1.3,0.6s-1-0.2-1.3-0.6l-5.3-5.2c-1.5,0.8-3.1,1.3-4.8,1.3
		c-2.4,0-4.9-0.9-6.7-2.8c-3.7-3.7-3.7-9.7,0-13.4c3.7-3.7,9.8-3.7,13.5,0c3.4,3.4,3.6,8.7,0.9,12.4l5.1,5.1
		C30.6,28.1,30.6,29.3,29.8,30z"/>
</g>
</svg>
