<?xml version="1.0" encoding="utf-8"?>
<!-- Generator: Adobe Illustrator 25.4.2, SVG Export Plug-In . SVG Version: 6.00 Build 0)  -->
<svg version="1.1" id="레이어_1" xmlns="http://www.w3.org/2000/svg" xmlns:xlink="http://www.w3.org/1999/xlink" x="0px"
	 y="0px" viewBox="0 0 70 70" style="enable-background:new 0 0 70 70;" xml:space="preserve">
<style type="text/css">
	.st0{fill:#333333;}
</style>
<g>
	<g>
		<g>
			<path class="st0" d="M45.5,14c-0.7,0-1.3-0.2-1.9-0.6L35,7.7l-8.6,5.7c-1.6,1.1-3.8,0.6-4.9-1s-0.6-3.8,1-4.9l10.5-7
				c1.2-0.8,2.7-0.8,3.9,0l10.5,7c1.6,1.1,2,3.2,1,4.9C47.7,13.5,46.6,14,45.5,14z"/>
			<path class="st0" d="M35,70c-0.7,0-1.4-0.2-1.9-0.6l-10.5-7c-1.6-1.1-2-3.2-1-4.9c1.1-1.6,3.2-2,4.9-1l8.6,5.7l8.6-5.7
				c1.6-1.1,3.8-0.6,4.9,1c1.1,1.6,0.6,3.8-1,4.9l-10.5,7C36.4,69.8,35.7,70,35,70z"/>
		</g>
		<g>
			<path class="st0" d="M14,24.5c0,0.7-0.2,1.3-0.6,1.9L7.7,35l5.7,8.6c1.1,1.6,0.6,3.8-1,4.9c-1.6,1.1-3.8,0.6-4.9-1L0.5,37
				c-0.8-1.2-0.8-2.7,0-3.9l7-10.5c1.1-1.6,3.2-2,4.9-1C13.5,22.3,14,23.4,14,24.5z"/>
			<path class="st0" d="M70,35c0,0.7-0.2,1.4-0.6,1.9l-7,10.5c-1.1,1.6-3.2,2-4.9,1c-1.6-1.1-2-3.2-1-4.9l5.7-8.6l-5.7-8.6
				c-1.1-1.6-0.6-3.8,1-4.9s3.8-0.6,4.9,1l7,10.5C69.8,33.6,70,34.3,70,35z"/>
		</g>
	</g>
	<path class="st0" d="M42,49H28c-3.9,0-7-3.1-7-7V28c0-3.9,3.1-7,7-7h14c3.9,0,7,3.1,7,7v14C49,45.9,45.9,49,42,49z M28,28v14h14V28
		H28z"/>
</g>
</svg>
