<?xml version="1.0" encoding="utf-8"?>
<!-- Generator: Adobe Illustrator 25.4.2, SVG Export Plug-In . SVG Version: 6.00 Build 0)  -->
<svg version="1.1" id="레이어_1" xmlns="http://www.w3.org/2000/svg" xmlns:xlink="http://www.w3.org/1999/xlink" x="0px"
	 y="0px" viewBox="0 0 24 24" style="enable-background:new 0 0 24 24;" xml:space="preserve">
<style type="text/css">
	.st0{fill:#333333;}
</style>
<path class="st0" d="M22.8,9.6h-2.1c-0.2-0.7-0.5-1.4-0.8-2l1.5-1.5c0.5-0.5,0.5-1.2,0-1.7l-1.7-1.7c-0.5-0.5-1.2-0.5-1.7,0
	l-1.5,1.5c-0.6-0.4-1.3-0.6-2-0.8V1.2c0-0.7-0.5-1.2-1.2-1.2h-2.4c-0.7,0-1.2,0.5-1.2,1.2v2.1c-0.7,0.2-1.4,0.5-2,0.8L6.1,2.7
	c-0.5-0.5-1.2-0.5-1.7,0L2.7,4.4c-0.5,0.5-0.5,1.2,0,1.7l1.5,1.5c-0.4,0.6-0.6,1.3-0.8,2H1.2C0.5,9.6,0,10.1,0,10.8v2.4
	c0,0.7,0.5,1.2,1.2,1.2h2.1c0.2,0.7,0.5,1.4,0.8,2l-1.5,1.5c-0.5,0.5-0.5,1.2,0,1.7l1.7,1.7c0.5,0.5,1.2,0.5,1.7,0l1.5-1.5
	c0.6,0.4,1.3,0.6,2,0.8v2.1c0,0.7,0.5,1.2,1.2,1.2h2.4c0.7,0,1.2-0.5,1.2-1.2v-2.1c0.7-0.2,1.4-0.5,2-0.8l1.5,1.5
	c0.5,0.5,1.2,0.5,1.7,0l1.7-1.7c0.5-0.5,0.5-1.2,0-1.7l-1.5-1.5c0.4-0.6,0.6-1.3,0.8-2h2.1c0.7,0,1.2-0.5,1.2-1.2v-2.4
	C24,10.1,23.5,9.6,22.8,9.6z M12,16.8c-2.7,0-4.8-2.1-4.8-4.8c0-2.7,2.1-4.8,4.8-4.8s4.8,2.1,4.8,4.8C16.8,14.7,14.7,16.8,12,16.8z"
	/>
</svg>
