<?xml version="1.0" encoding="utf-8"?>
<!-- Generator: Adobe Illustrator 25.4.2, SVG Export Plug-In . SVG Version: 6.00 Build 0)  -->
<svg version="1.1" id="레이어_1" xmlns="http://www.w3.org/2000/svg" xmlns:xlink="http://www.w3.org/1999/xlink" x="0px"
	 y="0px" viewBox="0 0 35 35" style="enable-background:new 0 0 35 35;" xml:space="preserve">
<style type="text/css">
	.st0{fill:#999999;}
</style>
<g>
	<path class="st0" d="M33.2,31.5H3.5V1.8c0-1-0.8-1.8-1.8-1.8S0,0.8,0,1.8v31.5c0,1,0.8,1.8,1.8,1.8h31.5c1,0,1.8-0.8,1.8-1.8
		S34.2,31.5,33.2,31.5z"/>
	<path class="st0" d="M25.5,26.3H21c-1,0-1.8,0.8-1.8,1.8s0.8,1.8,1.8,1.8h8.8c0.2,0,0.5,0,0.7-0.1c0,0,0,0,0,0c0,0,0,0,0,0
		c0.2-0.1,0.3-0.2,0.5-0.3c0,0,0.1-0.1,0.1-0.1c0.1-0.1,0.2-0.2,0.2-0.4c0-0.1,0.1-0.1,0.1-0.2c0.1-0.2,0.1-0.4,0.1-0.6v-8.8
		c0-1-0.8-1.8-1.8-1.8S28,18.3,28,19.2v4.5L8.2,4C7.6,3.3,6.4,3.3,5.8,4s-0.7,1.8,0,2.5L25.5,26.3z"/>
</g>
</svg>
