<?xml version="1.0" encoding="utf-8"?>
<!-- Generator: Adobe Illustrator 25.4.2, SVG Export Plug-In . SVG Version: 6.00 Build 0)  -->
<svg version="1.1" id="레이어_1" xmlns="http://www.w3.org/2000/svg" xmlns:xlink="http://www.w3.org/1999/xlink" x="0px"
	 y="0px" viewBox="0 0 60 40.1" style="enable-background:new 0 0 60 40.1;" xml:space="preserve">
<style type="text/css">
	.st0{fill:#00B4E6;}
</style>
<g>
	<g>
		<path class="st0" d="M46.6,14.5L46.6,14.5l-8.1-0.1c0-0.2,0-0.4-0.1-0.6l-2.9-5.7c-0.2-0.5-0.7-0.8-1.3-0.8h-2.9V0.1h-2.9v7.1
			h-2.8c-0.5,0-1,0.3-1.3,0.8l-2.9,5.7c-0.1,0.2-0.1,0.4-0.1,0.6h-8.1v0.1c-6.6,0.5-11.9,6-11.9,12.8c0,7.1,5.8,12.9,12.9,12.9
			c4.5,0,8.4-2.3,10.7-5.7H35c2.3,3.4,6.2,5.7,10.7,5.7c7.1,0,12.9-5.8,12.9-12.9C58.5,20.4,53.2,15,46.6,14.5z M45.6,20.8
			c1.2,0,2.1,1,2.1,2.1c0,1.2-1,2.1-2.1,2.1c-1.2,0-2.1-1-2.1-2.1C43.5,21.7,44.5,20.8,45.6,20.8z M19.3,29.2h-3.2v3.2
			c0,1.1-0.9,1.9-1.9,1.9s-1.9-0.9-1.9-1.9v-3.2H9.1c-1.1,0-1.9-0.9-1.9-1.9c0-1.1,0.9-1.9,1.9-1.9h3.2v-3.2c0-1.1,0.9-1.9,1.9-1.9
			s1.9,0.9,1.9,1.9v3.2h3.2c1.1,0,1.9,0.9,1.9,1.9C21.3,28.3,20.5,29.2,19.3,29.2z M41.3,29.4c-1.2,0-2.1-1-2.1-2.1
			c0-1.2,1-2.1,2.1-2.1s2.1,1,2.1,2.1C43.5,28.4,42.5,29.4,41.3,29.4z M45.6,33.6c-1.2,0-2.1-1-2.1-2.1c0-1.2,1-2.1,2.1-2.1
			c1.2,0,2.1,1,2.1,2.1C47.8,32.7,46.8,33.6,45.6,33.6z M49.8,29.4c-1.2,0-2.1-1-2.1-2.1c0-1.2,1-2.1,2.1-2.1c1.2,0,2.1,1,2.1,2.1
			C52,28.4,51,29.4,49.8,29.4z"/>
	</g>
</g>
</svg>
