<?xml version="1.0" encoding="utf-8"?>
<!-- Generator: Adobe Illustrator 25.4.2, SVG Export Plug-In . SVG Version: 6.00 Build 0)  -->
<svg version="1.1" id="레이어_1" xmlns="http://www.w3.org/2000/svg" xmlns:xlink="http://www.w3.org/1999/xlink" x="0px"
	 y="0px" viewBox="0 0 20 20" style="enable-background:new 0 0 20 20;" xml:space="preserve">
<style type="text/css">
	.st0{fill:#FFFFFF;}
</style>
<path class="st0" d="M0.7,8.1l8.4-7.6c0.8-0.7,2.1-0.7,2.8,0.1c0.7,0.8,0.7,2.1-0.1,2.8L6.7,8H18c1.1,0,2,0.9,2,2s-0.9,2-2,2H7.2
	l4.6,4.6c0.8,0.8,0.8,2,0,2.8c-0.4,0.4-0.9,0.6-1.4,0.6s-1-0.2-1.4-0.6L0.6,11C0.2,10.6,0,10.1,0,9.5C0,9,0.3,8.5,0.7,8.1z"/>
</svg>
