<?xml version="1.0" encoding="utf-8"?>
<!-- Generator: Adobe Illustrator 25.4.2, SVG Export Plug-In . SVG Version: 6.00 Build 0)  -->
<svg version="1.1" id="레이어_1" xmlns="http://www.w3.org/2000/svg" xmlns:xlink="http://www.w3.org/1999/xlink" x="0px"
	 y="0px" viewBox="0 0 60 40.1" style="enable-background:new 0 0 60 40.1;" xml:space="preserve">
<style type="text/css">
	.st0{fill:#333333;}
</style>
<g>
	<path class="st0" d="M45.2,0.4C44.6,0,43.9,0,43.3,0.2l-20,8c-0.8,0.3-1.3,1-1.3,1.9v18.3c-0.6-0.2-1.3-0.4-2-0.4c-3.3,0-6,2.7-6,6
		s2.7,6,6,6s6-2.7,6-6V15.4L42,9v13.4c-0.6-0.2-1.3-0.4-2-0.4c-3.3,0-6,2.7-6,6s2.7,6,6,6s6-2.7,6-6V2C45.9,1.4,45.7,0.8,45.2,0.4z"
		/>
</g>
</svg>
