<?xml version="1.0" encoding="utf-8"?>
<!-- Generator: Adobe Illustrator 25.4.2, SVG Export Plug-In . SVG Version: 6.00 Build 0)  -->
<svg version="1.1" id="레이어_1" xmlns="http://www.w3.org/2000/svg" xmlns:xlink="http://www.w3.org/1999/xlink" x="0px"
	 y="0px" viewBox="0 0 28 27" style="enable-background:new 0 0 28 27;" xml:space="preserve">
<style type="text/css">
	.st0{fill:url(#SVGID_1_);}
</style>
<g>
	<linearGradient id="SVGID_1_" gradientUnits="userSpaceOnUse" x1="0" y1="13.4557" x2="28" y2="13.4557">
		<stop  offset="0" style="stop-color:#0000FF"/>
		<stop  offset="0.4196" style="stop-color:#9900FF"/>
		<stop  offset="0.6877" style="stop-color:#FF00FF"/>
		<stop  offset="1" style="stop-color:#FF0000"/>
	</linearGradient>
	<path class="st0" d="M27.9,10.2c-0.2-0.6-0.7-1-1.3-1H18l-2.7-8.1c-0.2-0.6-0.7-1-1.3-1s-1.1,0.4-1.3,1L10,9.3H1.4
		c-0.6,0-1.1,0.4-1.3,1c-0.2,0.6,0,1.2,0.5,1.6l7,5l-2.7,8.1c-0.2,0.6,0,1.2,0.5,1.6c0.5,0.4,1.2,0.4,1.6,0l7-5l7,5
		c0.2,0.2,0.5,0.3,0.8,0.3c0.3,0,0.6-0.1,0.8-0.3c0.5-0.4,0.7-1,0.5-1.6l-2.7-8.1l7-5C27.9,11.4,28.1,10.8,27.9,10.2z"/>
</g>
</svg>
