<?xml version="1.0" encoding="utf-8"?>
<!-- Generator: Adobe Illustrator 25.4.2, SVG Export Plug-In . SVG Version: 6.00 Build 0)  -->
<svg version="1.1" id="레이어_1" xmlns="http://www.w3.org/2000/svg" xmlns:xlink="http://www.w3.org/1999/xlink" x="0px"
	 y="0px" viewBox="0 0 60 60" style="enable-background:new 0 0 60 60;" xml:space="preserve">
<style type="text/css">
	.st0{fill:url(#SVGID_1_);}
	.st1{fill:url(#SVGID_00000150088503966004180090000011156834408441044644_);}
	.st2{fill:url(#SVGID_00000088835434742415780960000006987792404227022009_);}
	.st3{fill:url(#SVGID_00000170959315792391489890000009509913240834833561_);}
	.st4{fill:url(#SVGID_00000090991361930514915070000003639791350018226578_);}
	.st5{fill:url(#SVGID_00000036226080274996248350000005583849473580381343_);}
	.st6{fill:url(#SVGID_00000124874487429634900530000009409608724475010956_);}
	.st7{fill:url(#SVGID_00000065786040252824511330000016116829729307234487_);}
</style>
<g>
	<linearGradient id="SVGID_1_" gradientUnits="userSpaceOnUse" x1="24.6124" y1="-1.2389" x2="50.2758" y2="49.375">
		<stop  offset="0" style="stop-color:#0000FF"/>
		<stop  offset="0.4196" style="stop-color:#9B00FF"/>
		<stop  offset="0.6877" style="stop-color:#FF00FF"/>
		<stop  offset="1" style="stop-color:#FF0000"/>
	</linearGradient>
	<path class="st0" d="M29.6,17.7c-1.7,0-3-1.3-3-3v-12c0-1.7,1.3-3,3-3s3,1.3,3,3v12C32.6,16.3,31.3,17.7,29.6,17.7z"/>
	
		<linearGradient id="SVGID_00000034773649616906319490000005875342896658518938_" gradientUnits="userSpaceOnUse" x1="7.6719" y1="7.3507" x2="33.3353" y2="57.9645">
		<stop  offset="0" style="stop-color:#0000FF"/>
		<stop  offset="0.4196" style="stop-color:#9B00FF"/>
		<stop  offset="0.6877" style="stop-color:#FF00FF"/>
		<stop  offset="1" style="stop-color:#FF0000"/>
	</linearGradient>
	<path style="fill:url(#SVGID_00000034773649616906319490000005875342896658518938_);" d="M29.6,59.7c-1.7,0-3-1.3-3-3v-12
		c0-1.7,1.3-3,3-3s3,1.3,3,3v12C32.6,58.3,31.3,59.7,29.6,59.7z"/>
	
		<linearGradient id="SVGID_00000023255939257313853540000005962869579001464988_" gradientUnits="userSpaceOnUse" x1="-0.7728" y1="11.6325" x2="24.8906" y2="62.2463">
		<stop  offset="0" style="stop-color:#0000FF"/>
		<stop  offset="0.4196" style="stop-color:#9B00FF"/>
		<stop  offset="0.6877" style="stop-color:#FF00FF"/>
		<stop  offset="1" style="stop-color:#FF0000"/>
	</linearGradient>
	<path style="fill:url(#SVGID_00000023255939257313853540000005962869579001464988_);" d="M14.6,33.2h-12c-1.7,0-3-1.3-3-3
		s1.3-3,3-3h12c1.7,0,3,1.3,3,3S16.3,33.2,14.6,33.2z"/>
	
		<linearGradient id="SVGID_00000137818619858164926770000011524444360877555871_" gradientUnits="userSpaceOnUse" x1="32.6376" y1="-5.308" x2="58.301" y2="45.3058">
		<stop  offset="0" style="stop-color:#0000FF"/>
		<stop  offset="0.4196" style="stop-color:#9B00FF"/>
		<stop  offset="0.6877" style="stop-color:#FF00FF"/>
		<stop  offset="1" style="stop-color:#FF0000"/>
	</linearGradient>
	<path style="fill:url(#SVGID_00000137818619858164926770000011524444360877555871_);" d="M56.6,33.2h-12c-1.7,0-3-1.3-3-3
		s1.3-3,3-3h12c1.7,0,3,1.3,3,3S58.3,33.2,56.6,33.2z"/>
	
		<linearGradient id="SVGID_00000113329468178126766100000010793667162518537115_" gradientUnits="userSpaceOnUse" x1="10.3192" y1="6.0084" x2="35.9826" y2="56.6222">
		<stop  offset="0" style="stop-color:#0000FF"/>
		<stop  offset="0.4196" style="stop-color:#9B00FF"/>
		<stop  offset="0.6877" style="stop-color:#FF00FF"/>
		<stop  offset="1" style="stop-color:#FF0000"/>
	</linearGradient>
	<path style="fill:url(#SVGID_00000113329468178126766100000010793667162518537115_);" d="M19,22.1c-0.8,0-1.5-0.3-2.1-0.9l-8.5-8.5
		c-1.2-1.2-1.2-3.1,0-4.2s3.1-1.2,4.2,0l8.5,8.5c1.2,1.2,1.2,3.1,0,4.2C20.6,21.8,19.8,22.1,19,22.1z"/>
	
		<linearGradient id="SVGID_00000016065690013858971720000013293692742070211256_" gradientUnits="userSpaceOnUse" x1="21.9651" y1="0.1034" x2="47.6285" y2="50.7173">
		<stop  offset="0" style="stop-color:#0000FF"/>
		<stop  offset="0.4196" style="stop-color:#9B00FF"/>
		<stop  offset="0.6877" style="stop-color:#FF00FF"/>
		<stop  offset="1" style="stop-color:#FF0000"/>
	</linearGradient>
	<path style="fill:url(#SVGID_00000016065690013858971720000013293692742070211256_);" d="M48.7,51.8c-0.8,0-1.5-0.3-2.1-0.9
		l-8.5-8.5c-1.2-1.2-1.2-3.1,0-4.2s3.1-1.2,4.2,0l8.5,8.5c1.2,1.2,1.2,3.1,0,4.2C50.3,51.5,49.5,51.8,48.7,51.8z"/>
	
		<linearGradient id="SVGID_00000155143463470773767450000014390423984608455556_" gradientUnits="userSpaceOnUse" x1="-1.5153" y1="12.0089" x2="24.1481" y2="62.6228">
		<stop  offset="0" style="stop-color:#0000FF"/>
		<stop  offset="0.4196" style="stop-color:#9B00FF"/>
		<stop  offset="0.6877" style="stop-color:#FF00FF"/>
		<stop  offset="1" style="stop-color:#FF0000"/>
	</linearGradient>
	<path style="fill:url(#SVGID_00000155143463470773767450000014390423984608455556_);" d="M10.9,52.1c-0.8,0-1.5-0.3-2.1-0.9
		c-1.2-1.2-1.2-3.1,0-4.2l8.5-8.5c1.2-1.2,3.1-1.2,4.2,0s1.2,3.1,0,4.2L13,51.3C12.4,51.8,11.7,52.1,10.9,52.1z"/>
	
		<linearGradient id="SVGID_00000067924199389467719650000015139414579550154927_" gradientUnits="userSpaceOnUse" x1="34.0879" y1="-6.0434" x2="59.7513" y2="44.5705">
		<stop  offset="0" style="stop-color:#0000FF"/>
		<stop  offset="0.4196" style="stop-color:#9B00FF"/>
		<stop  offset="0.6877" style="stop-color:#FF00FF"/>
		<stop  offset="1" style="stop-color:#FF0000"/>
	</linearGradient>
	<path style="fill:url(#SVGID_00000067924199389467719650000015139414579550154927_);" d="M40.6,22.4c-0.8,0-1.5-0.3-2.1-0.9
		c-1.2-1.2-1.2-3.1,0-4.2L47,8.8c1.2-1.2,3.1-1.2,4.2,0s1.2,3.1,0,4.2l-8.5,8.5C42.1,22.1,41.4,22.4,40.6,22.4z"/>
</g>
</svg>
