<?xml version="1.0" encoding="utf-8"?>
<!-- Generator: Adobe Illustrator 25.4.2, SVG Export Plug-In . SVG Version: 6.00 Build 0)  -->
<svg version="1.1" id="레이어_1" xmlns="http://www.w3.org/2000/svg" xmlns:xlink="http://www.w3.org/1999/xlink" x="0px"
	 y="0px" viewBox="0 0 28 28" style="enable-background:new 0 0 28 28;" xml:space="preserve">
<style type="text/css">
	.st0{fill:#C7C7C7;}
</style>
<g>
	<path class="st0" d="M26.6,28H1.4C0.6,28,0,27.4,0,26.6V1.4C0,0.6,0.6,0,1.4,0s1.4,0.6,1.4,1.4v23.8h23.8c0.8,0,1.4,0.6,1.4,1.4
		C28,27.4,27.4,28,26.6,28z"/>
	<path class="st0" d="M7,18.2c-0.3,0-0.6-0.1-0.8-0.3c-0.6-0.5-0.7-1.3-0.3-2l4.2-5.6c0.2-0.3,0.6-0.5,1-0.6c0.4,0,0.8,0.1,1.1,0.4
		l2.7,2.7L18.3,5c0.2-0.4,0.6-0.7,1-0.8c0.5-0.1,0.9,0.1,1.3,0.4l4.2,4.2c0.5,0.5,0.5,1.4,0,2c-0.5,0.5-1.4,0.5-2,0l-2.7-2.7
		L16.7,16c-0.2,0.4-0.6,0.7-1,0.8c-0.5,0.1-0.9-0.1-1.3-0.4l-3.1-3.1l-3.2,4.3C7.8,18,7.4,18.2,7,18.2z"/>
</g>
</svg>
