<?xml version="1.0" encoding="utf-8"?>
<!-- Generator: Adobe Illustrator 25.4.2, SVG Export Plug-In . SVG Version: 6.00 Build 0)  -->
<svg version="1.1" id="레이어_1" xmlns="http://www.w3.org/2000/svg" xmlns:xlink="http://www.w3.org/1999/xlink" x="0px"
	 y="0px" viewBox="0 0 40 40.1" style="enable-background:new 0 0 40 40.1;" xml:space="preserve">
<style type="text/css">
	.st0{fill:#333333;}
</style>
<g>
	<path class="st0" d="M34,8.4V2c0-1.1-0.9-2-2-2s-2,0.9-2,2v6.4c0,5.3-4,9.6-9,9.6h-2c-3.8,0-7-2.5-8.3-6H18c1.1,0,2-0.9,2-2
		s-0.9-2-2-2h-8V6h8c1.1,0,2-0.9,2-2s-0.9-2-2-2h-8c0-1.1-0.9-2-2-2S6,0.9,6,2v6.4c0,4.9,2.5,9.2,6.3,11.6C8.6,22.4,6,26.7,6,31.6
		V38c0,1.1,0.9,2,2,2s2-0.9,2-2v-6.4c0-5.3,4-9.6,9-9.6h2c3.8,0,7,2.5,8.3,6H22c-1.1,0-2,0.9-2,2s0.9,2,2,2h8v2h-8c-1.1,0-2,0.9-2,2
		s0.9,2,2,2h8c0,1.1,0.9,2,2,2s2-0.9,2-2v-6.4c0-4.9-2.5-9.2-6.3-11.6C31.6,17.7,34,13.4,34,8.4z"/>
</g>
</svg>
