<?xml version="1.0" encoding="utf-8"?>
<!-- Generator: Adobe Illustrator 25.4.2, SVG Export Plug-In . SVG Version: 6.00 Build 0)  -->
<svg version="1.1" id="레이어_1" xmlns="http://www.w3.org/2000/svg" xmlns:xlink="http://www.w3.org/1999/xlink" x="0px"
	 y="0px" viewBox="0 0 32 32" style="enable-background:new 0 0 32 32;" xml:space="preserve">
<style type="text/css">
	.st0{fill:#333333;}
</style>
<g>
	<path class="st0" d="M30.4,32H1.6C0.7,32,0,31.3,0,30.4V1.6C0,0.7,0.7,0,1.6,0s1.6,0.7,1.6,1.6v27.2h27.2c0.9,0,1.6,0.7,1.6,1.6
		C32,31.3,31.3,32,30.4,32z"/>
	<path class="st0" d="M8,20.8c-0.3,0-0.7-0.1-1-0.3c-0.7-0.5-0.8-1.5-0.3-2.2l4.8-6.4c0.3-0.4,0.7-0.6,1.2-0.6
		c0.5,0,0.9,0.1,1.2,0.5l3.1,3.1l3.9-9c0.2-0.5,0.6-0.8,1.2-0.9c0.5-0.1,1.1,0.1,1.4,0.4l4.8,4.8c0.6,0.6,0.6,1.6,0,2.3
		c-0.6,0.6-1.6,0.6-2.3,0l-3.1-3.1l-3.9,9c-0.2,0.5-0.6,0.8-1.2,0.9c-0.5,0.1-1.1-0.1-1.4-0.4L13,15.2l-3.7,4.9
		C9,20.6,8.5,20.8,8,20.8z"/>
</g>
</svg>
