<?xml version="1.0" encoding="utf-8"?>
<!-- Generator: Adobe Illustrator 25.4.2, SVG Export Plug-In . SVG Version: 6.00 Build 0)  -->
<svg version="1.1" id="레이어_1" xmlns="http://www.w3.org/2000/svg" xmlns:xlink="http://www.w3.org/1999/xlink" x="0px"
	 y="0px" viewBox="0 0 24 20" style="enable-background:new 0 0 24 20;" xml:space="preserve">
<style type="text/css">
	.st0{fill:#333333;}
</style>
<g>
	<path class="st0" d="M23.9,4.8c0,0,0-0.1,0-0.1c-0.1-0.1-0.1-0.3-0.2-0.4l-3.6-3.6c-0.5-0.5-1.2-0.5-1.7,0c-0.5,0.5-0.5,1.2,0,1.7
		L19.9,4H1.2C0.5,4,0,4.5,0,5.2s0.5,1.2,1.2,1.2h18.7l-1.6,1.6c-0.5,0.5-0.5,1.2,0,1.7c0.2,0.2,0.5,0.4,0.8,0.4s0.6-0.1,0.8-0.4
		L23.7,6c0,0,0,0,0,0c0.1-0.1,0.2-0.2,0.2-0.4c0,0,0,0,0,0c0,0,0,0,0,0C24,5.5,24,5.3,24,5.2c0,0,0-0.1,0-0.1C24,5,24,4.9,23.9,4.8z
		"/>
	<path class="st0" d="M0.1,14.4c0,0,0-0.1,0-0.1c0.1-0.1,0.1-0.3,0.2-0.4l3.6-3.6c0.5-0.5,1.2-0.5,1.7,0c0.5,0.5,0.5,1.2,0,1.7
		l-1.6,1.6h18.7c0.7,0,1.2,0.5,1.2,1.2c0,0.7-0.5,1.2-1.2,1.2H4.1l1.6,1.6c0.5,0.5,0.5,1.2,0,1.7c-0.2,0.2-0.5,0.4-0.8,0.4
		c-0.3,0-0.6-0.1-0.8-0.4l-3.6-3.6c0,0,0,0,0,0c-0.1-0.1-0.2-0.2-0.2-0.4c0,0,0,0,0,0c0,0,0,0,0,0C0,15.1,0,14.9,0,14.8
		c0,0,0-0.1,0-0.1C0,14.6,0,14.5,0.1,14.4z"/>
</g>
</svg>
