<?xml version="1.0" encoding="utf-8"?>
<!-- Generator: Adobe Illustrator 25.4.2, SVG Export Plug-In . SVG Version: 6.00 Build 0)  -->
<svg version="1.1" id="레이어_1" xmlns="http://www.w3.org/2000/svg" xmlns:xlink="http://www.w3.org/1999/xlink" x="0px"
	 y="0px" viewBox="0 0 20 20" style="enable-background:new 0 0 20 20;" xml:space="preserve">
<style type="text/css">
	.st0{fill:#00B4E6;}
</style>
<path class="st0" d="M19.3,8.1l-8.4-7.6c-0.8-0.7-2.1-0.7-2.8,0.1C7.4,1.5,7.4,2.7,8.2,3.5l5,4.5H2c-1.1,0-2,0.9-2,2s0.9,2,2,2h10.8
	l-4.6,4.6c-0.8,0.8-0.8,2,0,2.8C8.6,19.8,9.1,20,9.6,20s1-0.2,1.4-0.6l8.4-8.4c0.4-0.4,0.6-0.9,0.6-1.5C20,9,19.7,8.5,19.3,8.1z"/>
</svg>
