<?xml version="1.0" encoding="utf-8"?>
<!-- Generator: Adobe Illustrator 25.4.2, SVG Export Plug-In . SVG Version: 6.00 Build 0)  -->
<svg version="1.1" id="레이어_1" xmlns="http://www.w3.org/2000/svg" xmlns:xlink="http://www.w3.org/1999/xlink" x="0px"
	 y="0px" viewBox="0 0 60 40.1" style="enable-background:new 0 0 60 40.1;" xml:space="preserve">
<style type="text/css">
	.st0{fill:#00B4E6;}
</style>
<g>
	<path class="st0" d="M50,14.5c0.1-0.1,0.1-0.3,0.1-0.4V14l0,0c0-0.2,0-0.4-0.1-0.6c0-0.1-0.1-0.1-0.1-0.2s-0.1-0.2-0.2-0.3
		L39.5,0.6C39.2,0.2,38.8,0,38.2,0H21.8c-0.5,0-0.9,0.2-1.2,0.6L10.3,12.9c-0.1,0.1-0.1,0.2-0.2,0.3c0,0.1-0.1,0.1-0.1,0.2
		C10,13.6,10,13.8,10,13.9l0,0V14c0,0.1,0,0.3,0.1,0.4c0,0.1,0.1,0.1,0.1,0.2s0.1,0.1,0.1,0.2l18.5,24.6c0,0,0.1,0,0.1,0.1
		c0.1,0.1,0.2,0.2,0.4,0.3l0.1,0.1c0.2,0.1,0.4,0.1,0.6,0.1l0,0c0.2,0,0.4-0.1,0.6-0.1c0.1,0,0.1-0.1,0.1-0.1
		c0.1-0.1,0.3-0.2,0.4-0.3c0,0,0.1,0,0.1-0.1l18.6-24.6c0-0.1,0.1-0.1,0.1-0.2C50,14.6,50,14.5,50,14.5z M22.8,15.5l4,16.1l-12-16.1
		H22.8z M34.2,15.5l-4.1,16.7l-4.2-16.7C25.8,15.5,34.2,15.5,34.2,15.5z M26.5,12.4L30.2,5l3.9,7.4H26.5z M37.2,15.5h8.2L33.4,31.6
		L37.2,15.5z M45.2,12.4h-7.8l-4.9-9.2h4.9L45.2,12.4z M22.7,3.1h5l-4.6,9.2H15L22.7,3.1z"/>
</g>
</svg>
