<?xml version="1.0" encoding="utf-8"?>
<!-- Generator: Adobe Illustrator 25.4.2, SVG Export Plug-In . SVG Version: 6.00 Build 0)  -->
<svg version="1.1" id="레이어_1" xmlns="http://www.w3.org/2000/svg" xmlns:xlink="http://www.w3.org/1999/xlink" x="0px"
	 y="0px" viewBox="0 0 60 40.1" style="enable-background:new 0 0 60 40.1;" xml:space="preserve">
<style type="text/css">
	.st0{fill:#00B4E6;}
</style>
<g>
	<g>
		<path class="st0" d="M51.4,5.4V2.7c0-1.5-1.2-2.7-2.7-2.7S46,1.2,46,2.7v2.7h-4.2l-4.6-4.6C36.7,0.3,36,0,35.3,0H24.5
			c-0.7,0-1.4,0.3-1.9,0.8l-4.4,4.6H8.6c-2.9,0-5.3,2.4-5.3,5.3v24c0,2.9,2.4,5.3,5.3,5.3h42.7c2.9,0,5.3-2.4,5.3-5.3v-24
			C56.7,7.8,54.4,5.4,51.4,5.4z M30,34.7c-6.6,0-12-5.4-12-12s5.4-12,12-12c6.6,0,12,5.4,12,12S36.7,34.7,30,34.7z"/>
		<path class="st0" d="M30,13.4c-5.2,0-9.3,4.2-9.3,9.3S24.9,32,30,32s9.3-4.2,9.3-9.3S35.3,13.4,30,13.4z M30,29.4
			c-3.7,0-6.7-3-6.7-6.7s3-6.7,6.7-6.7s6.7,3,6.7,6.7S33.7,29.4,30,29.4z"/>
	</g>
</g>
</svg>
