<?xml version="1.0" encoding="utf-8"?>
<!-- Generator: Adobe Illustrator 25.4.2, SVG Export Plug-In . SVG Version: 6.00 Build 0)  -->
<svg version="1.1" id="레이어_1" xmlns="http://www.w3.org/2000/svg" xmlns:xlink="http://www.w3.org/1999/xlink" x="0px"
	 y="0px" viewBox="0 0 40 40.1" style="enable-background:new 0 0 40 40.1;" xml:space="preserve">
<style type="text/css">
	.st0{fill:#00B4E6;}
</style>
<g>
	<g>
		<path class="st0" d="M10.1,0h-8c-1.1,0-2,0.9-2,2v8c0,1.1,0.9,2,2,2h8c1.1,0,2-0.9,2-2V2C12.1,0.9,11.2,0,10.1,0z"/>
		<path class="st0" d="M24.1,0h-8c-1.1,0-2,0.9-2,2v8c0,1.1,0.9,2,2,2h8c1.1,0,2-0.9,2-2V2C26.1,0.9,25.2,0,24.1,0z"/>
		<path class="st0" d="M38.1,0h-8c-1.1,0-2,0.9-2,2v8c0,1.1,0.9,2,2,2h8c1.1,0,2-0.9,2-2V2C40.1,0.9,39.1,0,38.1,0z"/>
		<path class="st0" d="M10.1,14h-8c-1.1,0-2,0.9-2,2v8c0,1.1,0.9,2,2,2h8c1.1,0,2-0.9,2-2v-8C12.1,14.9,11.2,14,10.1,14z"/>
		<path class="st0" d="M24.1,14h-8c-1.1,0-2,0.9-2,2v8c0,1.1,0.9,2,2,2h8c1.1,0,2-0.9,2-2v-8C26.1,14.9,25.2,14,24.1,14z"/>
		<path class="st0" d="M38.1,14h-8c-1.1,0-2,0.9-2,2v8c0,1.1,0.9,2,2,2h8c1.1,0,2-0.9,2-2v-8C40.1,14.9,39.1,14,38.1,14z"/>
		<path class="st0" d="M10.1,28h-8c-1.1,0-2,0.9-2,2v8c0,1.1,0.9,2,2,2h8c1.1,0,2-0.9,2-2v-8C12.1,28.9,11.2,28,10.1,28z"/>
		<path class="st0" d="M24.1,28h-8c-1.1,0-2,0.9-2,2v8c0,1.1,0.9,2,2,2h8c1.1,0,2-0.9,2-2v-8C26.1,28.9,25.2,28,24.1,28z"/>
		<path class="st0" d="M38.1,28h-8c-1.1,0-2,0.9-2,2v8c0,1.1,0.9,2,2,2h8c1.1,0,2-0.9,2-2v-8C40.1,28.9,39.1,28,38.1,28z"/>
	</g>
</g>
</svg>
