<?xml version="1.0" encoding="utf-8"?>
<!-- Generator: Adobe Illustrator 25.4.2, SVG Export Plug-In . SVG Version: 6.00 Build 0)  -->
<svg version="1.1" id="레이어_1" xmlns="http://www.w3.org/2000/svg" xmlns:xlink="http://www.w3.org/1999/xlink" x="0px"
	 y="0px" viewBox="0 0 24 24" style="enable-background:new 0 0 24 24;" xml:space="preserve">
<style type="text/css">
	.st0{fill:#FFFFFF;}
</style>
<g>
	<path class="st0" d="M16.7,3.2L11,9c-1.1,1.1-1.1,2.9,0,4c0.5,0.5,0.5,1.2,0,1.7c-0.2,0.2-0.5,0.4-0.8,0.4c-0.3,0-0.6-0.1-0.8-0.4
		c-2-2-2-5.4,0-7.4L15,1.5c2-2,5.4-2,7.4,0c2,2,2,5.4,0,7.4l-1.9,1.9c-0.5,0.5-1.2,0.5-1.7,0c-0.5-0.5-0.5-1.2,0-1.7l1.9-1.9
		c1.1-1.1,1.1-2.9,0-4C19.7,2.1,17.9,2.1,16.7,3.2z"/>
	<path class="st0" d="M1.5,15.1l1.9-1.9c0.5-0.5,1.2-0.5,1.7,0c0.5,0.5,0.5,1.2,0,1.7l-1.9,1.9c-1.1,1.1-1.1,2.9,0,4
		c1.1,1.1,3,1.1,4,0l5.7-5.7c1.1-1.1,1.1-2.9,0-4c-0.5-0.5-0.5-1.2,0-1.7c0.5-0.5,1.2-0.5,1.7,0c2,2,2,5.4,0,7.4L9,22.5
		c-1,1-2.3,1.5-3.7,1.5c-1.4,0-2.7-0.5-3.7-1.5C-0.5,20.4-0.5,17.1,1.5,15.1z"/>
</g>
</svg>
