<?xml version="1.0" encoding="utf-8"?>
<!-- Generator: Adobe Illustrator 25.4.2, SVG Export Plug-In . SVG Version: 6.00 Build 0)  -->
<svg version="1.1" id="레이어_1" xmlns="http://www.w3.org/2000/svg" xmlns:xlink="http://www.w3.org/1999/xlink" x="0px"
	 y="0px" viewBox="0 0 24 24" style="enable-background:new 0 0 24 24;" xml:space="preserve">
<style type="text/css">
	.st0{fill:#BE0000;}
</style>
<path class="st0" d="M15.4,12l7.9-7.9c0.9-0.9,0.9-2.5,0-3.4c-0.9-0.9-2.5-0.9-3.4,0L12,8.6L4.1,0.7c-0.9-0.9-2.5-0.9-3.4,0
	c-0.9,0.9-0.9,2.5,0,3.4L8.6,12l-7.9,7.9c-0.9,0.9-0.9,2.5,0,3.4C1.2,23.8,1.8,24,2.4,24s1.2-0.2,1.7-0.7l7.9-7.9l7.9,7.9
	c0.5,0.5,1.1,0.7,1.7,0.7c0.6,0,1.2-0.2,1.7-0.7c0.9-0.9,0.9-2.5,0-3.4L15.4,12z"/>
</svg>
