<?xml version="1.0" encoding="utf-8"?>
<!-- Generator: Adobe Illustrator 25.4.2, SVG Export Plug-In . SVG Version: 6.00 Build 0)  -->
<svg version="1.1" id="레이어_1" xmlns="http://www.w3.org/2000/svg" xmlns:xlink="http://www.w3.org/1999/xlink" x="0px"
	 y="0px" viewBox="0 0 20 20" style="enable-background:new 0 0 20 20;" xml:space="preserve">
<style type="text/css">
	.st0{fill:#C4C4C4;}
</style>
<g>
	<g>
		<path class="st0" d="M4.7,14.6c-0.1,0.2,0,0.4,0.1,0.5s0.3,0.2,0.5,0.1l3-0.8l-2.8-2.8L4.7,14.6z"/>
		<path class="st0" d="M19.7,1.7l-1.4-1.4c-0.4-0.4-1-0.4-1.4,0l-1.4,1.4l2.8,2.8l1.4-1.4C20.1,2.7,20.1,2.1,19.7,1.7z"/>
		<rect x="5.9" y="6.1" transform="matrix(0.7071 -0.7071 0.7071 0.7071 -2.212 10.7995)" class="st0" width="12" height="4"/>
	</g>
	<path class="st0" d="M10.9,20H1c-0.5,0-1-0.4-1-1s0.4-1,1-1h9.9c0.5,0,1,0.4,1,1S11.4,20,10.9,20z"/>
</g>
</svg>
