<?xml version="1.0" encoding="utf-8"?>
<!-- Generator: Adobe Illustrator 25.4.2, SVG Export Plug-In . SVG Version: 6.00 Build 0)  -->
<svg version="1.1" id="레이어_1" xmlns="http://www.w3.org/2000/svg" xmlns:xlink="http://www.w3.org/1999/xlink" x="0px"
	 y="0px" viewBox="0 0 20 20" style="enable-background:new 0 0 20 20;" xml:space="preserve">
<style type="text/css">
	.st0{fill:#00B1E3;}
</style>
<path class="st0" d="M12.8,10l6.6-6.6c0.8-0.8,0.8-2,0-2.8c-0.8-0.8-2-0.8-2.8,0L10,7.2L3.4,0.6c-0.8-0.8-2-0.8-2.8,0
	c-0.8,0.8-0.8,2,0,2.8L7.2,10l-6.6,6.6c-0.8,0.8-0.8,2,0,2.8C1,19.8,1.5,20,2,20s1-0.2,1.4-0.6l6.6-6.6l6.6,6.6
	C17,19.8,17.5,20,18,20s1-0.2,1.4-0.6c0.8-0.8,0.8-2,0-2.8L12.8,10z"/>
</svg>
