<?xml version="1.0" encoding="utf-8"?>
<!-- Generator: Adobe Illustrator 25.4.2, SVG Export Plug-In . SVG Version: 6.00 Build 0)  -->
<svg version="1.1" id="레이어_1" xmlns="http://www.w3.org/2000/svg" xmlns:xlink="http://www.w3.org/1999/xlink" x="0px"
	 y="0px" viewBox="0 0 83 87" style="enable-background:new 0 0 83 87;" xml:space="preserve">
<style type="text/css">
	.st0{fill:#C7C7C7;}
</style>
<g>
	<path class="st0" d="M77.5,73.3c-2.7-17.9-9.5-28.8-15-34.9c8.1-2.3,14.1-9.8,14.1-18.7C76.6,9,67.9,0.3,57.2,0.3
		c-6.5,0-12.2,3.1-15.7,8c-3.5-4.8-9.2-8-15.7-8C15.1,0.3,6.4,9,6.4,19.7c0,8.9,5.9,16.3,14.1,18.7C15,44.5,8.2,55.4,5.5,73.3
		c-3.2,0.5-5.7,3.3-5.7,6.7c0,3.7,3,6.8,6.8,6.8s6.8-3,6.8-6.8c0-2.9-1.9-5.4-4.5-6.3c2.8-18.6,10.5-29.3,15.6-34.6
		c0.4,0,0.9,0,1.3,0c6.5,0,12.2-3.1,15.7-8c3.5,4.8,9.2,8,15.7,8c0.4,0,0.9,0,1.3,0c5.2,5.3,12.8,16,15.6,34.6
		c-2.6,0.9-4.5,3.4-4.5,6.3c0,3.7,3,6.8,6.8,6.8c3.7,0,6.8-3,6.8-6.8C83.2,76.6,80.7,73.8,77.5,73.3z M25,30.7c-6.1,0-11-4.9-11-11
		s4.9-11,11-11c5.2,0,9.6,3.7,10.7,8.6c0.2,0.8,0.3,1.6,0.3,2.4c0,1.2-0.2,2.4-0.6,3.6C33.9,27.6,29.8,30.7,25,30.7z M47.1,19.7
		c0-6.1,4.9-11,11-11c6.1,0,11,4.9,11,11s-4.9,11-11,11C52,30.7,47.1,25.8,47.1,19.7z"/>
	<circle class="st0" cx="58" cy="20.1" r="2.5"/>
	<circle class="st0" cx="25" cy="20.1" r="2.5"/>
</g>
</svg>
