<?xml version="1.0" encoding="utf-8"?>
<!-- Generator: Adobe Illustrator 25.4.2, SVG Export Plug-In . SVG Version: 6.00 Build 0)  -->
<svg version="1.1" id="레이어_1" xmlns="http://www.w3.org/2000/svg" xmlns:xlink="http://www.w3.org/1999/xlink" x="0px"
	 y="0px" viewBox="0 0 24.5 32" style="enable-background:new 0 0 24.5 32;" xml:space="preserve">
<style type="text/css">
	.st0{fill:#333333;}
</style>
<path class="st0" d="M22.5,12.4c-1.1,0-2,0.9-2,2v-1.9c0-1.1-0.9-2-2-2c-1.1,0-2,0.9-2,2v-2.3c0-1.1-0.9-2-2-2c-1.1,0-2,0.9-2,2V2
	c0-1.1-0.9-2-2-2c-1.1,0-2,0.9-2,2v16.4L5,11.5c-0.7-1.3-2.2-1.8-3.5-1.2c-1.3,0.7-1.8,2.2-1.2,3.5L8,29.3c0,0.1,0.1,0.1,0.1,0.2
	C8.5,30.8,8.5,32,8.5,32h10.7c0,0,1.8-3.6,3.6-5.3c1.5-1.5,1.7-4.4,1.8-5.3c0,0,0,0,0,0v-0.2v-4.5v-2.2
	C24.5,13.3,23.6,12.4,22.5,12.4z"/>
</svg>
