<?xml version="1.0" encoding="utf-8"?>
<!-- Generator: Adobe Illustrator 25.4.2, SVG Export Plug-In . SVG Version: 6.00 Build 0)  -->
<svg version="1.1" id="레이어_1" xmlns="http://www.w3.org/2000/svg" xmlns:xlink="http://www.w3.org/1999/xlink" x="0px"
	 y="0px" viewBox="0 0 24 20" style="enable-background:new 0 0 24 20;" xml:space="preserve">
<style type="text/css">
	.st0{fill:#00B4E6;}
</style>
<g>
	<path class="st0" d="M23.9,4.8L23.9,4.8c-0.1-0.2-0.1-0.4-0.2-0.5l-3.6-3.6c-0.5-0.5-1.2-0.5-1.7,0s-0.5,1.2,0,1.7L19.9,4H1.2
		C0.5,4,0,4.5,0,5.2s0.5,1.2,1.2,1.2h18.7L18.3,8c-0.5,0.5-0.5,1.2,0,1.7c0.2,0.2,0.5,0.4,0.8,0.4s0.6-0.1,0.8-0.4L23.7,6l0,0
		c0.1-0.1,0.2-0.2,0.2-0.4l0,0l0,0C24,5.5,24,5.3,24,5.2V5.1C24,5,24,4.9,23.9,4.8z"/>
	<path class="st0" d="M0.1,14.4v-0.1c0.1-0.1,0.1-0.3,0.2-0.4l3.6-3.6c0.5-0.5,1.2-0.5,1.7,0s0.5,1.2,0,1.7L4,13.6h18.7
		c0.7,0,1.2,0.5,1.2,1.2S23.4,16,22.7,16H4.1l1.6,1.6c0.5,0.5,0.5,1.2,0,1.7c-0.2,0.2-0.5,0.4-0.8,0.4s-0.6-0.1-0.8-0.4l-3.6-3.6
		l0,0c-0.1-0.1-0.2-0.2-0.2-0.4l0,0l0,0C0,15.1,0,14.9,0,14.8v-0.1C0,14.6,0,14.5,0.1,14.4z"/>
</g>
</svg>
