<?xml version="1.0" encoding="utf-8"?>
<!-- Generator: Adobe Illustrator 25.4.2, SVG Export Plug-In . SVG Version: 6.00 Build 0)  -->
<svg version="1.1" id="레이어_1" xmlns="http://www.w3.org/2000/svg" xmlns:xlink="http://www.w3.org/1999/xlink" x="0px"
	 y="0px" viewBox="0 0 24 24" style="enable-background:new 0 0 24 24;" xml:space="preserve">
<style type="text/css">
	.st0{fill:#333333;}
</style>
<g>
	<path class="st0" d="M21.2-0.3H2c-1.3,0-2.4,1.1-2.4,2.4v19.2c0,1.3,1.1,2.4,2.4,2.4h19.2c1.3,0,2.4-1.1,2.4-2.4V2.1
		C23.6,0.7,22.6-0.3,21.2-0.3z M18.2,2.1c0.3,0,0.6,0.3,0.6,0.6c0,0.3-0.3,0.6-0.6,0.6c-0.3,0-0.6-0.3-0.6-0.6
		C17.6,2.4,17.9,2.1,18.2,2.1z M15.8,2.1c0.3,0,0.6,0.3,0.6,0.6c0,0.3-0.3,0.6-0.6,0.6S15.2,3,15.2,2.7C15.2,2.4,15.5,2.1,15.8,2.1z
		 M2.6,2.1h10.8c0.3,0,0.6,0.3,0.6,0.6s-0.3,0.6-0.6,0.6H2.6C2.3,3.3,2,3,2,2.7S2.3,2.1,2.6,2.1z M21.2,21.3H2V5.7h19.2L21.2,21.3z
		 M20.6,3.3C20.3,3.3,20,3,20,2.7c0-0.3,0.3-0.6,0.6-0.6s0.6,0.3,0.6,0.6C21.2,3,21,3.3,20.6,3.3z"/>
	<g>
		<path class="st0" d="M5.1,15.3h0.2c0.1,0,0.1-0.1,0.2-0.1l0.8-2.4L7,15.1c0,0.1,0.1,0.1,0.2,0.1h0.2c0.1,0,0.1-0.1,0.2-0.1l1-3.2
			c0-0.1,0-0.1,0-0.2c0-0.1-0.1-0.1-0.2-0.1H8.2c-0.1,0-0.1,0.1-0.2,0.1l-0.8,2.4l-0.8-2.4c0-0.1-0.1-0.1-0.2-0.1H6.1
			c-0.1,0-0.1,0.1-0.2,0.1l-0.8,2.4l-0.8-2.4c0-0.1-0.1-0.1-0.2-0.1H4c-0.1,0-0.1,0-0.2,0.1c0,0.1,0,0.1,0,0.2l1,3.2
			C4.9,15.2,5,15.3,5.1,15.3z"/>
		<path class="st0" d="M10.5,15.3h0.2c0.1,0,0.1-0.1,0.2-0.1l0.8-2.4l0.8,2.4c0,0.1,0.1,0.1,0.2,0.1h0.2c0.1,0,0.1-0.1,0.2-0.1
			l1-3.2c0-0.1,0-0.1,0-0.2c0-0.1-0.1-0.1-0.2-0.1h-0.2c-0.1,0-0.1,0.1-0.2,0.1l-0.8,2.4l-0.8-2.4c0-0.1-0.1-0.1-0.2-0.1h-0.2
			c-0.1,0-0.1,0.1-0.2,0.1l-0.8,2.4l-0.8-2.4c0-0.1-0.1-0.1-0.2-0.1H9.4c-0.1,0-0.1,0-0.2,0.1c0,0.1,0,0.1,0,0.2l1,3.2
			C10.3,15.2,10.4,15.3,10.5,15.3z"/>
		<path class="st0" d="M15.9,15.3h0.2c0.1,0,0.1-0.1,0.2-0.1l0.8-2.4l0.8,2.4c0,0.1,0.1,0.1,0.2,0.1h0.2c0.1,0,0.1-0.1,0.2-0.1
			l1-3.2c0-0.1,0-0.1,0-0.2c0-0.1-0.1-0.1-0.2-0.1H19c-0.1,0-0.1,0.1-0.2,0.1l-0.8,2.4l-0.8-2.4c0-0.1-0.1-0.1-0.2-0.1h-0.2
			c-0.1,0-0.1,0.1-0.2,0.1L16,14.2l-0.8-2.4c0-0.1-0.1-0.1-0.2-0.1h-0.2c-0.1,0-0.1,0-0.2,0.1c0,0.1,0,0.1,0,0.2l1,3.2
			C15.7,15.2,15.8,15.3,15.9,15.3z"/>
	</g>
</g>
</svg>
