<?xml version="1.0" encoding="utf-8"?>
<!-- Generator: Adobe Illustrator 25.4.2, SVG Export Plug-In . SVG Version: 6.00 Build 0)  -->
<svg version="1.1" id="레이어_1" xmlns="http://www.w3.org/2000/svg" xmlns:xlink="http://www.w3.org/1999/xlink" x="0px"
	 y="0px" viewBox="0 0 40 40.1" style="enable-background:new 0 0 40 40.1;" xml:space="preserve">
<style type="text/css">
	.st0{fill:#999999;}
</style>
<g>
	<g>
		<path class="st0" d="M36.1,24v-8c0-2.2-1.7-4-3.8-4H7.8C5.7,12,4,13.8,4,16v8l-4,4v6c0,3.3,2.7,6,6,6h28c3.3,0,6-2.7,6-6v-6
			L36.1,24z M8.1,22v-6h24v6v4h-8.9l-0.1-0.5l2.7-2.1c0.3-0.2,0.4-0.6,0.3-1s-0.4-0.6-0.8-0.6H22l-1-3.3c-0.2-0.7-1.4-0.7-1.6,0
			l-1,3.3h-3.3c-0.4,0-0.7,0.2-0.8,0.6c-0.1,0.4,0,0.8,0.3,1l2.7,2.1L17.2,26H8.1V22L8.1,22z M28.1,36h-16c-1.1,0-2-0.9-2-2
			s0.9-2,2-2h16c1.1,0,2,0.9,2,2S29.2,36,28.1,36z"/>
		<path class="st0" d="M14.1,4h12c1.1,0,2-0.9,2-2s-0.9-2-2-2h-12c-1.1,0-2,0.9-2,2S13,4,14.1,4z"/>
		<path class="st0" d="M10.1,10h20c1.1,0,2-0.9,2-2s-0.9-2-2-2h-20c-1.1,0-2,0.9-2,2S8.9,10,10.1,10z"/>
	</g>
</g>
</svg>
