<?xml version="1.0" encoding="utf-8"?>
<!-- Generator: Adobe Illustrator 25.4.2, SVG Export Plug-In . SVG Version: 6.00 Build 0)  -->
<svg version="1.1" id="레이어_1" xmlns="http://www.w3.org/2000/svg" xmlns:xlink="http://www.w3.org/1999/xlink" x="0px"
	 y="0px" viewBox="0 0 28 28" style="enable-background:new 0 0 28 28;" xml:space="preserve">
<style type="text/css">
	.st0{fill:url(#SVGID_1_);}
	.st1{fill:url(#SVGID_00000003804115268313924160000007434555886368272532_);}
</style>
<g>
	<g>
		
			<linearGradient id="SVGID_1_" gradientUnits="userSpaceOnUse" x1="17.5" y1="136.8059" x2="17.5" y2="164.8059" gradientTransform="matrix(1 0 0 1 -3.5 -136.86)">
			<stop  offset="0" style="stop-color:#534BB1"/>
			<stop  offset="1" style="stop-color:#551BF9"/>
		</linearGradient>
		<circle class="st0" cx="14" cy="13.9" r="14"/>
		
			<linearGradient id="SVGID_00000053534559536432315710000004799301092211597496_" gradientUnits="userSpaceOnUse" x1="17.798" y1="141.8702" x2="17.798" y2="160.3381" gradientTransform="matrix(1 0 0 1 -3.5 -136.86)">
			<stop  offset="0" style="stop-color:#FFFFFF"/>
			<stop  offset="1" style="stop-color:#FFFFFF;stop-opacity:0.82"/>
		</linearGradient>
		<path style="fill:url(#SVGID_00000053534559536432315710000004799301092211597496_);" d="M24,14.1h-2.5c0-5-4.1-9.1-9.1-9.2
			c-5,0-9.1,4-9.2,9C3.2,19,8,23.5,13.1,23.5h0.7c4.5,0,10.6-3.5,11.5-7.8c0.1-0.7-0.3-1.4-1-1.5C24.2,14.1,24.1,14.1,24,14.1z
			 M8.7,14.3c0,0.7-0.5,1.2-1.2,1.2c-0.7,0-1.2-0.5-1.2-1.2v-2c0-0.7,0.5-1.2,1.2-1.2c0.7,0,1.2,0.5,1.2,1.2V14.3z M13,14.3
			c0,0.7-0.5,1.2-1.2,1.2c-0.7,0-1.2-0.5-1.2-1.2v-2c0-0.7,0.5-1.2,1.2-1.2c0.7,0,1.2,0.5,1.2,1.2V14.3z"/>
	</g>
</g>
</svg>
