<?xml version="1.0" encoding="utf-8"?>
<!-- Generator: Adobe Illustrator 25.4.2, SVG Export Plug-In . SVG Version: 6.00 Build 0)  -->
<svg version="1.1" id="레이어_1" xmlns="http://www.w3.org/2000/svg" xmlns:xlink="http://www.w3.org/1999/xlink" x="0px"
	 y="0px" viewBox="0 0 28 28" style="enable-background:new 0 0 28 28;" xml:space="preserve">
<style type="text/css">
	.st0{fill:#C7C7C7;}
</style>
<path class="st0" d="M26.8,11.1h-2.5c-0.2-0.8-0.6-1.6-1-2.4L25,7c0.5-0.5,0.5-1.4,0-2l-2-2c-0.5-0.5-1.4-0.5-2,0l-1.8,1.8
	c-0.7-0.4-1.5-0.7-2.4-1V1.3c0-0.8-0.6-1.4-1.4-1.4h-2.8c-0.8,0-1.4,0.6-1.4,1.4v2.5C10.5,4,9.7,4.4,9,4.8L7.2,3
	c-0.5-0.5-1.4-0.5-2,0l-2,2c-0.5,0.5-0.5,1.4,0,2L5,8.7c-0.4,0.7-0.7,1.5-1,2.4H1.6c-0.8,0-1.4,0.6-1.4,1.4v2.8
	c0,0.8,0.6,1.4,1.4,1.4H4c0.2,0.8,0.6,1.6,1,2.4l-1.8,1.8c-0.5,0.5-0.5,1.4,0,2l2,2c0.5,0.5,1.4,0.5,2,0L9,23c0.7,0.4,1.5,0.7,2.4,1
	v2.5c0,0.8,0.6,1.4,1.4,1.4h2.8c0.8,0,1.4-0.6,1.4-1.4V24c0.8-0.2,1.6-0.6,2.4-1l1.8,1.8c0.5,0.5,1.4,0.5,2,0l2-2
	c0.5-0.5,0.5-1.4,0-2l-1.8-1.8c0.4-0.7,0.7-1.5,1-2.4h2.5c0.8,0,1.4-0.6,1.4-1.4v-2.8C28.2,11.7,27.5,11.1,26.8,11.1z M14.2,19.5
	c-3.1,0-5.6-2.5-5.6-5.6c0-3.1,2.5-5.6,5.6-5.6s5.6,2.5,5.6,5.6C19.8,17,17.2,19.5,14.2,19.5z"/>
</svg>
