<?xml version="1.0" encoding="utf-8"?>
<!-- Generator: Adobe Illustrator 25.4.2, SVG Export Plug-In . SVG Version: 6.00 Build 0)  -->
<svg version="1.1" id="레이어_1" xmlns="http://www.w3.org/2000/svg" xmlns:xlink="http://www.w3.org/1999/xlink" x="0px"
	 y="0px" viewBox="0 0 28 27" style="enable-background:new 0 0 28 27;" xml:space="preserve">
<style type="text/css">
	.st0{fill:#C7C7C7;}
</style>
<g>
	<path class="st0" d="M14,3.5l2.1,6.4l1.9,1.4h6.7l-5.4,3.9l-0.7,2.2l2.1,6.4l-5.5-3.9l-2.3,0l-5.5,3.9l2.1-6.4l-0.7-2.2l-5.4-3.9
		H10l1.9-1.4L14,3.5 M14,0.2c-0.6,0-1.1,0.4-1.3,1L10,9.3H1.4c-0.6,0-1.1,0.4-1.3,1c-0.2,0.6,0,1.2,0.5,1.6l7,5L4.9,25
		c-0.2,0.6,0,1.2,0.5,1.6c0.2,0.2,0.5,0.3,0.8,0.3c0.3,0,0.6-0.1,0.8-0.3l7-5l7,5c0.2,0.2,0.5,0.3,0.8,0.3c0.3,0,0.6-0.1,0.8-0.3
		c0.5-0.4,0.7-1,0.5-1.6l-2.7-8.1l7-5c0.5-0.4,0.7-1,0.5-1.6c-0.2-0.6-0.7-1-1.3-1H18l-2.7-8.1C15.1,0.6,14.6,0.2,14,0.2L14,0.2z"/>
</g>
</svg>
