<?xml version="1.0" encoding="utf-8"?>
<!-- Generator: Adobe Illustrator 25.4.2, SVG Export Plug-In . SVG Version: 6.00 Build 0)  -->
<svg version="1.1" id="레이어_1" xmlns="http://www.w3.org/2000/svg" xmlns:xlink="http://www.w3.org/1999/xlink" x="0px"
	 y="0px" viewBox="0 0 32 32" style="enable-background:new 0 0 32 32;" xml:space="preserve">
<style type="text/css">
	.st0{fill:#333333;}
</style>
<g>
	<g>
		<path class="st0" d="M7.6,23.4c-0.1,0.3,0,0.6,0.2,0.8c0.2,0.2,0.5,0.3,0.8,0.2l4.8-1.3l-4.5-4.5L7.6,23.4z"/>
		<path class="st0" d="M31.5,2.7l-2.3-2.3c-0.6-0.6-1.6-0.6-2.3,0l-2.3,2.3l4.5,4.5L31.5,5C32.2,4.4,32.2,3.4,31.5,2.7z"/>
		<rect x="9.5" y="9.7" transform="matrix(0.7071 -0.7071 0.7071 0.7071 -3.5392 17.2792)" class="st0" width="19.2" height="6.4"/>
	</g>
	<path class="st0" d="M17.4,32H1.6C0.7,32,0,31.3,0,30.4s0.7-1.6,1.6-1.6h15.8c0.9,0,1.6,0.7,1.6,1.6S18.3,32,17.4,32z"/>
</g>
</svg>
