<?xml version="1.0" encoding="utf-8"?>
<!-- Generator: Adobe Illustrator 25.4.2, SVG Export Plug-In . SVG Version: 6.00 Build 0)  -->
<svg version="1.1" id="레이어_1" xmlns="http://www.w3.org/2000/svg" xmlns:xlink="http://www.w3.org/1999/xlink" x="0px"
	 y="0px" viewBox="0 0 23 24" style="enable-background:new 0 0 23 24;" xml:space="preserve">
<style type="text/css">
	.st0{fill:#333333;}
</style>
<path class="st0" d="M21.5,0l-8.1,1.4c-0.3,0-0.5,0.2-0.7,0.4L0.3,14.1c-0.5,0.5-0.5,1.4,0,1.9l7.6,7.6c0.5,0.5,1.4,0.5,1.9,0
	l12.3-12.3c0.2-0.2,0.4-0.5,0.4-0.9l0.5-9c0-0.4-0.1-0.8-0.4-1.1C22.3,0.1,21.9,0,21.5,0z M20.3,5.6c-0.5,0.5-1.4,0.5-1.9,0
	c-0.5-0.5-0.5-1.4,0-1.9c0.5-0.5,1.4-0.5,1.9,0C20.8,4.2,20.8,5,20.3,5.6z"/>
</svg>
