<?xml version="1.0" encoding="utf-8"?>
<!-- Generator: Adobe Illustrator 25.4.2, SVG Export Plug-In . SVG Version: 6.00 Build 0)  -->
<svg version="1.1" id="레이어_1" xmlns="http://www.w3.org/2000/svg" xmlns:xlink="http://www.w3.org/1999/xlink" x="0px"
	 y="0px" viewBox="0 0 28 28" style="enable-background:new 0 0 28 28;" xml:space="preserve">
<style type="text/css">
	.st0{fill:#00B3E5;}
</style>
<g>
	<g>
		<path class="st0" d="M26.6,5.6H21V1.4C21,0.6,20.4,0,19.6,0H1.4C0.6,0,0,0.6,0,1.4V21c0,0.8,0.6,1.4,1.4,1.4H7v4.2
			C7,27.4,7.6,28,8.4,28h18.2c0.8,0,1.4-0.6,1.4-1.4V7C28,6.2,27.4,5.6,26.6,5.6z M25.2,25.2H9.8V21v-1.4H7H2.8V2.8h15.4v2.8H8.4
			C7.6,5.6,7,6.2,7,7v4.2h2.8V8.4h8.4H21h4.2V25.2z"/>
		<path class="st0" d="M19.5,15c0,0,0-0.1,0-0.1c-0.1-0.2-0.2-0.3-0.3-0.4L15,10.2c-0.5-0.5-1.4-0.5-2,0s-0.5,1.4,0,2l1.8,1.8H5.6
			c-0.8,0-1.4,0.6-1.4,1.4c0,0.8,0.6,1.4,1.4,1.4h9.2L13,18.6c-0.5,0.5-0.5,1.4,0,2c0.3,0.3,0.6,0.4,1,0.4s0.7-0.1,1-0.4l4.2-4.2
			c0,0,0,0,0,0c0.1-0.1,0.2-0.3,0.3-0.4c0,0,0,0,0,0c0,0,0,0,0,0c0.1-0.1,0.1-0.3,0.1-0.4c0,0,0-0.1,0-0.1
			C19.6,15.2,19.6,15.1,19.5,15z"/>
	</g>
</g>
</svg>
