<?xml version="1.0" encoding="utf-8"?>
<!-- Generator: Adobe Illustrator 25.4.2, SVG Export Plug-In . SVG Version: 6.00 Build 0)  -->
<svg version="1.1" id="레이어_1" xmlns="http://www.w3.org/2000/svg" xmlns:xlink="http://www.w3.org/1999/xlink" x="0px"
	 y="0px" viewBox="0 0 60 40.1" style="enable-background:new 0 0 60 40.1;" xml:space="preserve">
<style type="text/css">
	.st0{fill:url(#SVGID_1_);}
</style>
<g>
	<linearGradient id="SVGID_1_" gradientUnits="userSpaceOnUse" x1="9" y1="20.05" x2="51" y2="20.05">
		<stop  offset="0" style="stop-color:#0000FF"/>
		<stop  offset="0.4196" style="stop-color:#9900FF"/>
		<stop  offset="0.6877" style="stop-color:#FF00FF"/>
		<stop  offset="1" style="stop-color:#FF0000"/>
	</linearGradient>
	<path class="st0" d="M50.9,15.2c-0.3-0.9-1.1-1.4-2-1.4H36L32,1.5c-0.3-0.9-1.1-1.4-2-1.4s-1.7,0.6-2,1.4l-4,12.2H11.1
		c-0.9,0-1.7,0.6-2,1.4c-0.3,0.9,0,1.8,0.8,2.3l10.4,7.5l-4,12.2c-0.3,0.9,0,1.8,0.8,2.3c0.7,0.5,1.7,0.5,2.5,0L30,32.1l10.4,7.5
		c0.4,0.3,0.8,0.4,1.2,0.4c0.4,0,0.9-0.1,1.2-0.4c0.7-0.5,1-1.5,0.8-2.3l-4-12.2l10.4-7.5C50.9,17,51.2,16,50.9,15.2z"/>
</g>
</svg>
