<?xml version="1.0" encoding="utf-8"?>
<!-- Generator: Adobe Illustrator 25.4.2, SVG Export Plug-In . SVG Version: 6.00 Build 0)  -->
<svg version="1.1" id="레이어_1" xmlns="http://www.w3.org/2000/svg" xmlns:xlink="http://www.w3.org/1999/xlink" x="0px"
	 y="0px" viewBox="0 0 32 32" style="enable-background:new 0 0 32 32;" xml:space="preserve">
<style type="text/css">
	.st0{fill:#333333;}
</style>
<g>
	<path class="st0" d="M32,16c0-8.8-7.2-16-16-16S0,7.2,0,16c0,8.8,7.2,16,16,16S32,24.8,32,16z M28.8,16c0,7.1-5.7,12.8-12.8,12.8
		S3.2,23.1,3.2,16S8.9,3.2,16,3.2S28.8,8.9,28.8,16z"/>
	<circle class="st0" cx="16" cy="8" r="1.6"/>
	<path class="st0" d="M16,11.2c-0.9,0-1.6,0.7-1.6,1.6V24c0,0.9,0.7,1.6,1.6,1.6c0.9,0,1.6-0.7,1.6-1.6V12.8
		C17.6,11.9,16.9,11.2,16,11.2z"/>
</g>
</svg>
