<?xml version="1.0" encoding="utf-8"?>
<!-- Generator: Adobe Illustrator 25.4.2, SVG Export Plug-In . SVG Version: 6.00 Build 0)  -->
<svg version="1.1" id="레이어_1" xmlns="http://www.w3.org/2000/svg" xmlns:xlink="http://www.w3.org/1999/xlink" x="0px"
	 y="0px" viewBox="0 0 28 22.4" style="enable-background:new 0 0 28 22.4;" xml:space="preserve">
<style type="text/css">
	.st0{fill:#FFFFFF;}
</style>
<g>
	<g>
		<path class="st0" d="M1.4,7h3c0.6,2.4,2.8,4.2,5.4,4.2s4.8-1.8,5.4-4.2h11.4C27.4,7,28,6.4,28,5.6s-0.6-1.4-1.4-1.4H15.2
			C14.6,1.8,12.4,0,9.8,0S5,1.8,4.4,4.2h-3C0.6,4.2,0,4.8,0,5.6S0.6,7,1.4,7z M7,5.6c0-0.5,0.1-1,0.4-1.4c0.5-0.8,1.4-1.4,2.4-1.4
			s1.9,0.6,2.4,1.4c0.2,0.4,0.4,0.9,0.4,1.4s-0.1,1-0.4,1.4c-0.5,0.8-1.4,1.4-2.4,1.4S7.9,7.8,7.4,7C7.1,6.6,7,6.1,7,5.6z"/>
		<path class="st0" d="M26.6,15.4h-3c-0.6-2.4-2.8-4.2-5.4-4.2s-4.8,1.8-5.4,4.2H1.4C0.6,15.4,0,16,0,16.8c0,0.8,0.6,1.4,1.4,1.4
			h11.4c0.6,2.4,2.8,4.2,5.4,4.2s4.8-1.8,5.4-4.2h3c0.8,0,1.4-0.6,1.4-1.4C28,16,27.4,15.4,26.6,15.4z M21,16.8c0,0.5-0.1,1-0.4,1.4
			c-0.5,0.8-1.4,1.4-2.4,1.4c-1,0-1.9-0.6-2.4-1.4c-0.2-0.4-0.4-0.9-0.4-1.4s0.1-1,0.4-1.4c0.5-0.8,1.4-1.4,2.4-1.4
			c1,0,1.9,0.6,2.4,1.4C20.9,15.8,21,16.3,21,16.8z"/>
	</g>
</g>
</svg>
