<?xml version="1.0" encoding="utf-8"?>
<!-- Generator: Adobe Illustrator 25.4.2, SVG Export Plug-In . SVG Version: 6.00 Build 0)  -->
<svg version="1.1" id="레이어_1" xmlns="http://www.w3.org/2000/svg" xmlns:xlink="http://www.w3.org/1999/xlink" x="0px"
	 y="0px" viewBox="0 0 40 40" style="enable-background:new 0 0 40 40;" xml:space="preserve">
<style type="text/css">
	.st0{fill:url(#SVGID_1_);}
</style>
<linearGradient id="SVGID_1_" gradientUnits="userSpaceOnUse" x1="7.7899" y1="3.0937" x2="32.5028" y2="37.3116">
	<stop  offset="0" style="stop-color:#0000FF"/>
	<stop  offset="0.4196" style="stop-color:#9B00FF"/>
	<stop  offset="0.6877" style="stop-color:#FF00FF"/>
	<stop  offset="1" style="stop-color:#FF0000"/>
</linearGradient>
<path class="st0" d="M20,0C9,0,0,9,0,20c0,11,9,20,20,20s20-9,20-20C40,9,31,0,20,0z M7.6,17.2c0.1-0.4,0.5-0.6,0.9-0.6h7.9L18.9,9
	c0.1-0.4,0.5-0.6,0.9-0.6c0.4,0,0.7,0.3,0.9,0.6l2.5,7.6H31c0.4,0,0.7,0.3,0.9,0.6c0.1,0.4,0,0.8-0.3,1L31,18.6l-0.3,0.2L30.4,19
	l-0.6,0.4l-1,0.7l-1.6,1.2l-1,0.7c-0.3,0-0.6,0-0.9,0.1c-1.7,0.1-3.5,0.1-5.3,0.1c-2,0-4-0.1-5.8-0.2c-0.3,0-0.7,0-1-0.1l-2.5-1.8
	l-1.6-1.1l-0.5-0.4l-0.7-0.5C7.6,18,7.5,17.6,7.6,17.2z M31.2,24.6c-1.1,0.1-2.3,0.3-3.6,0.4c-0.6,0-1.1,0.1-1.7,0.1l0.5,1.6
	l1.2,3.7c0.1,0.4,0,0.8-0.3,1c-0.2,0.1-0.3,0.2-0.5,0.2s-0.4-0.1-0.5-0.2l-6.3-4.6l-0.1-0.1l-0.1,0.1l-6.3,4.6
	c-0.3,0.2-0.8,0.2-1.1,0c-0.3-0.2-0.5-0.6-0.3-1l1.2-3.7l0.5-1.6c-0.6,0-1.2-0.1-1.7-0.1c-1.1-0.1-2.2-0.2-3.2-0.3
	c-4.6-0.6-5.2-1.4-5.2-2.1c0-0.7,0.6-1.5,4.6-2l1.6,1.1c0,0-0.1,0-0.1,0c-2.7,0.3-3.9,0.7-4.4,0.9c0.5,0.2,1.7,0.6,4.4,0.9
	c0.9,0.1,1.8,0.2,2.8,0.3c0.6,0,1.1,0.1,1.7,0.1c1.9,0.1,3.9,0.2,5.9,0.2c1.9,0,3.7,0,5.4-0.1c0.6,0,1.2-0.1,1.7-0.1
	c1.2-0.1,2.3-0.2,3.3-0.3c2.7-0.3,3.9-0.7,4.4-0.9c-0.5-0.2-1.7-0.6-4.4-0.9c-0.2,0-0.4,0-0.6-0.1l1.6-1.1c4.4,0.6,5,1.4,5,2.1
	C36.4,23.2,35.8,24,31.2,24.6z"/>
</svg>
