<?xml version="1.0" encoding="utf-8"?>
<!-- Generator: Adobe Illustrator 25.4.2, SVG Export Plug-In . SVG Version: 6.00 Build 0)  -->
<svg version="1.1" id="레이어_1" xmlns="http://www.w3.org/2000/svg" xmlns:xlink="http://www.w3.org/1999/xlink" x="0px"
	 y="0px" viewBox="0 0 130 120" style="enable-background:new 0 0 130 120;" xml:space="preserve">
<style type="text/css">
	.st0{fill:#F3F3F3;}
	.st1{fill:#EBEBEB;}
</style>
<g>
	<g>
		<ellipse class="st0" cx="63.1" cy="113.5" rx="62.9" ry="6.5"/>
		<g>
			<path class="st1" d="M112.3,0c-9.6,0-17.4,7.8-17.4,17.4c0,2.6,0.6,5.1,1.6,7.3l-1.6,9.1c0,0.3,0,0.6,0.2,0.8
				c0.2,0.2,0.4,0.3,0.6,0.3c0.1,0,0.1,0,0.2,0l9.1-1.6c2.2,1,4.7,1.6,7.3,1.6c9.6,0,17.4-7.8,17.4-17.4C129.8,7.8,122,0,112.3,0z
				 M104.3,19.5c-1.1,0-2-0.9-2-2c0-1.1,0.9-2,2-2c1.1,0,2,0.9,2,2C106.3,18.5,105.4,19.5,104.3,19.5z M112.3,19.5c-1.1,0-2-0.9-2-2
				c0-1.1,0.9-2,2-2c1.1,0,2,0.9,2,2C114.4,18.5,113.5,19.5,112.3,19.5z M120.4,19.5c-1.1,0-2-0.9-2-2c0-1.1,0.9-2,2-2
				c1.1,0,2,0.9,2,2C122.4,18.5,121.5,19.5,120.4,19.5z"/>
			<g>
				<path class="st1" d="M98,103.9C95.4,86.6,88.7,76,83.5,70.1c7.9-2.2,13.6-9.5,13.6-18.1c0-10.4-8.4-18.8-18.8-18.8
					c-6.2,0-11.8,3-15.2,7.7c-3.4-4.7-8.9-7.7-15.2-7.7c-10.4,0-18.8,8.4-18.8,18.8c0,8.6,5.8,15.8,13.6,18.1
					c-5.3,5.9-11.9,16.5-14.5,33.8c-3.1,0.5-5.5,3.2-5.5,6.4c0,3.6,2.9,6.5,6.5,6.5s6.5-2.9,6.5-6.5c0-2.8-1.8-5.2-4.3-6.1
					c2.8-18,10.1-28.3,15.1-33.4c0.4,0,0.8,0,1.3,0c6.2,0,11.8-3,15.2-7.7c3.4,4.7,8.9,7.7,15.2,7.7c0.4,0,0.8,0,1.3,0
					c5,5.1,12.4,15.5,15.1,33.4c-2.5,0.9-4.3,3.3-4.3,6.1c0,3.6,2.9,6.5,6.5,6.5c3.6,0,6.5-2.9,6.5-6.5
					C103.5,107.1,101.1,104.4,98,103.9z M49.6,61C43.7,61,39,56.3,39,50.4s4.8-10.6,10.6-10.6c5.1,0,9.3,3.6,10.4,8.3
					c0.2,0.7,0.3,1.5,0.3,2.3c0,1.2-0.2,2.4-0.6,3.4C58.2,58,54.2,61,49.6,61z M69.3,50.4c0-5.9,4.8-10.6,10.6-10.6
					c5.9,0,10.6,4.8,10.6,10.6S85.8,61,79.9,61C74.1,61,69.3,56.3,69.3,50.4z"/>
				<circle class="st1" cx="83.2" cy="47.5" r="2.5"/>
				<circle class="st1" cx="52.8" cy="47.5" r="2.5"/>
			</g>
		</g>
	</g>
</g>
</svg>
