<?xml version="1.0" encoding="utf-8"?>
<!-- Generator: Adobe Illustrator 24.0.2, SVG Export Plug-In . SVG Version: 6.00 Build 0)  -->
<svg version="1.1" id="레이어_1" xmlns="http://www.w3.org/2000/svg" xmlns:xlink="http://www.w3.org/1999/xlink" x="0px"
	 y="0px" viewBox="0 0 60 40" style="enable-background:new 0 0 60 40;" xml:space="preserve">
<style type="text/css">
	.st0{fill:#333333;}
</style>
<g>
	<g>
		<path class="st0" d="M12.3,30.2c0.2-0.2,0.7-0.5,1.2-0.5h40.9c0.5,0,0.7,0.5,0.7,0.7c0,0.2,0,0.5-0.2,0.5l-8,8
			c-0.2,0.2-0.7,0.5-1.2,0.5H4.8C4.3,39.5,4,39,4,38.8c0-0.2,0-0.5,0.2-0.5L12.3,30.2z"/>
		<path class="st0" d="M12.3,0.3c0.2-0.2,0.7-0.5,1.2-0.5h40.9c0.5,0,0.7,0.5,0.7,0.7s0,0.5-0.2,0.5l-8,8c-0.2,0.2-0.7,0.5-1.2,0.5
			H4.8C4.3,9.5,4,9.1,4,8.8s0-0.5,0.2-0.5L12.3,0.3z"/>
		<path class="st0" d="M46.9,15.1c-0.2-0.2-0.7-0.5-1.2-0.5H4.8c-0.5,0-0.7,0.5-0.7,0.7c0,0.2,0,0.5,0.2,0.5l8,8
			c0.2,0.2,0.7,0.5,1.2,0.5h40.9c0.5,0,0.7-0.5,0.7-0.7c0-0.2,0-0.5-0.2-0.5L46.9,15.1z"/>
	</g>
</g>
</svg>
