<?xml version="1.0" encoding="utf-8"?>
<!-- Generator: Adobe Illustrator 25.4.2, SVG Export Plug-In . SVG Version: 6.00 Build 0)  -->
<svg version="1.1" id="레이어_1" xmlns="http://www.w3.org/2000/svg" xmlns:xlink="http://www.w3.org/1999/xlink" x="0px"
	 y="0px" viewBox="0 0 35.2 28" style="enable-background:new 0 0 35.2 28;" xml:space="preserve">
<style type="text/css">
	.st0{fill:#333333;}
</style>
<g>
	<path class="st0" d="M35,16c-0.1-0.3-1.7-4.4-6-7.4l2.1-2.1c0.7-0.7,0.7-1.8,0-2.5s-1.8-0.7-2.5,0l-2.8,2.8
		c-1.8-0.8-3.9-1.3-6.4-1.5V1.8c0-1-0.8-1.8-1.8-1.8s-1.8,0.8-1.8,1.8v3.6c-2.5,0.2-4.6,0.7-6.4,1.5L6.6,4C5.9,3.3,4.8,3.3,4.1,4
		s-0.7,1.8,0,2.5l2.1,2.1c-4.4,3.1-5.9,7.2-6,7.4L0,16.6l0.2,0.6C0.4,17.7,4.3,28,17.6,28S34.9,17.7,35,17.2l0.2-0.6L35,16z
		 M17.6,24.5c-9.2,0-12.9-5.9-13.8-7.9c1-2,4.6-7.9,13.8-7.9c9.2,0,12.9,5.9,13.8,7.9C30.5,18.6,26.9,24.5,17.6,24.5z"/>
	<circle class="st0" cx="17.6" cy="16.6" r="6.1"/>
</g>
</svg>
