<?xml version="1.0" encoding="utf-8"?>
<!-- Generator: Adobe Illustrator 25.4.2, SVG Export Plug-In . SVG Version: 6.00 Build 0)  -->
<svg version="1.1" id="레이어_1" xmlns="http://www.w3.org/2000/svg" xmlns:xlink="http://www.w3.org/1999/xlink" x="0px"
	 y="0px" viewBox="0 0 24 24" style="enable-background:new 0 0 24 24;" xml:space="preserve">
<style type="text/css">
	.st0{fill:#C7C7C7;}
</style>
<path class="st0" d="M23.6,22l-7.5-7.5c2.7-3.5,2.4-8.6-0.8-11.8c-3.5-3.5-9.2-3.5-12.7,0C0.9,4.3,0,6.6,0,9s0.9,4.7,2.6,6.4
	C4.4,17.1,6.7,18,9,18c1.9,0,3.8-0.6,5.5-1.8l7.5,7.5c0.2,0.2,0.5,0.4,0.8,0.4s0.6-0.1,0.8-0.4C24.1,23.2,24.1,22.4,23.6,22z
	 M4.3,13.7c-2.6-2.6-2.6-6.8,0-9.3C5.6,3,7.3,2.4,9,2.4c1.7,0,3.4,0.6,4.7,1.9c2.6,2.6,2.6,6.8,0,9.3C11.1,16.2,6.9,16.2,4.3,13.7z"
	/>
</svg>
