<?xml version="1.0" encoding="utf-8"?>
<!-- Generator: Adobe Illustrator 25.4.2, SVG Export Plug-In . SVG Version: 6.00 Build 0)  -->
<svg version="1.1" id="레이어_1" xmlns="http://www.w3.org/2000/svg" xmlns:xlink="http://www.w3.org/1999/xlink" x="0px"
	 y="0px" viewBox="0 0 80 80" style="enable-background:new 0 0 80 80;" xml:space="preserve">
<style type="text/css">
	.st0{fill:#333333;}
</style>
<g>
	<g>
		<path class="st0" d="M79.9,44.7C79.7,44.2,76.5,36,68,29.2l-5.7,5.7c5.5,4.1,8.3,8.9,9.5,11.2c-2.2,4.5-10.6,18-31.6,18
			c-2.3,0-4.5-0.2-6.5-0.5l-6.7,6.7c3.9,1.1,8.3,1.8,13.3,1.8c30.5,0,39.4-23.6,39.8-24.6l0.5-1.4L79.9,44.7z"/>
		<path class="st0" d="M40.2,60.1c7.7,0,14-6.3,14-14c0-0.9-0.1-1.9-0.3-2.8L37.4,59.8C38.3,60,39.2,60.1,40.2,60.1z"/>
		<path class="st0" d="M49.8,36.1l5.2-5.2l14.5-14.5L79,6.9c1.6-1.6,1.6-4.1,0-5.7s-4.1-1.6-5.7,0L52.9,21.7
			c-2.7-0.7-5.6-1.2-8.7-1.4v-1.2v-7c0-2.2-1.8-4-4-4s-4,1.8-4,4v8.2c-5.7,0.4-10.6,1.6-14.7,3.4L15,17.2c-1.6-1.6-4.1-1.6-5.7,0
			s-1.6,4.1,0,5.7l4.8,4.8c-10,7-13.5,16.4-13.8,17l-0.5,1.4l0.5,1.4c0.2,0.4,1.8,4.7,5.8,9.6c1.5,1.9,3.4,3.8,5.7,5.6L1.3,73.3
			c-1.6,1.6-1.6,4.1,0,5.7c0.8,0.8,1.8,1.2,2.8,1.2s2-0.4,2.8-1.2l11.8-11.8l6-6l5.3-5.3L49.8,36.1z M17.6,57
			c-2.4-1.8-4.3-3.8-5.7-5.6c-1.7-2.1-2.8-4.1-3.4-5.3c2-4.1,9.1-15.6,26.3-17.7c1.7-0.2,3.4-0.3,5.3-0.3c2.1,0,4.1,0.2,5.9,0.4
			l-3.8,3.8c-0.7-0.1-1.4-0.2-2.2-0.2c-7.7,0-14,6.3-14,14c0,0.7,0.1,1.4,0.2,2.2L17.6,57z"/>
	</g>
</g>
</svg>
