<?xml version="1.0" encoding="utf-8"?>
<!-- Generator: Adobe Illustrator 25.4.2, SVG Export Plug-In . SVG Version: 6.00 Build 0)  -->
<svg version="1.1" id="레이어_1" xmlns="http://www.w3.org/2000/svg" xmlns:xlink="http://www.w3.org/1999/xlink" x="0px"
	 y="0px" viewBox="0 0 38 38" style="enable-background:new 0 0 38 38;" xml:space="preserve">
<style type="text/css">
	.st0{fill:#C7C7C7;}
</style>
<g>
	<g>
		<path class="st0" d="M19,0C8.5,0,0,8.5,0,19c0,10.5,8.5,19,19,19s19-8.5,19-19C38,8.5,29.5,0,19,0z M19,34.2
			c-8.4,0-15.2-6.8-15.2-15.2S10.6,3.8,19,3.8S34.2,10.6,34.2,19S27.4,34.2,19,34.2z"/>
		<path class="st0" d="M19,7.6c-4.2,0-7.6,3.2-7.6,7.2c0,1,0.8,1.9,1.9,1.9s1.9-0.9,1.9-1.9c0-1.9,1.7-3.4,3.8-3.4s3.8,1.5,3.8,3.4
			s-1.7,3.4-3.8,3.4c-1.1,0-1.9,0.9-1.9,1.9v4c0,1,0.8,1.9,1.9,1.9s1.9-0.9,1.9-1.9v-2.3c3.3-0.8,5.7-3.6,5.7-6.9
			C26.6,10.8,23.2,7.6,19,7.6z"/>
		<circle class="st0" cx="19" cy="28.5" r="1.9"/>
	</g>
</g>
</svg>
