<?xml version="1.0" encoding="utf-8"?>
<!-- Generator: Adobe Illustrator 25.4.2, SVG Export Plug-In . SVG Version: 6.00 Build 0)  -->
<svg version="1.1" id="레이어_1" xmlns="http://www.w3.org/2000/svg" xmlns:xlink="http://www.w3.org/1999/xlink" x="0px"
	 y="0px" viewBox="0 0 34 27" style="enable-background:new 0 0 34 27;" xml:space="preserve">
<style type="text/css">
	.st0{fill:#333333;}
</style>
<g>
	<g>
		<path class="st0" d="M5.5,20.5c0.2-0.2,0.5-0.3,0.8-0.3h27.1c0.3,0,0.6,0.2,0.6,0.6c0,0.1-0.1,0.3-0.2,0.4l-5.4,5.4
			c-0.2,0.2-0.5,0.3-0.8,0.3H0.6c-0.3,0-0.6-0.3-0.6-0.6c0-0.1,0.1-0.3,0.2-0.4L5.5,20.5z"/>
		<path class="st0" d="M5.5,0.5C5.7,0.3,6,0.2,6.3,0.2h27.1c0.3,0,0.6,0.2,0.6,0.6c0,0.1-0.1,0.3-0.2,0.4l-5.4,5.4
			c-0.2,0.2-0.5,0.3-0.8,0.3H0.6C0.2,6.8,0,6.6,0,6.3C0,6.1,0.1,6,0.2,5.9L5.5,0.5z"/>
		<path class="st0" d="M28.5,10.4c-0.2-0.2-0.5-0.3-0.8-0.3H0.6c-0.3,0-0.6,0.2-0.6,0.6c0,0.1,0.1,0.3,0.2,0.4l5.4,5.4
			c0.2,0.2,0.5,0.3,0.8,0.3h27.1c0.3,0,0.6-0.2,0.6-0.6c0-0.1-0.1-0.3-0.2-0.4L28.5,10.4z"/>
	</g>
</g>
</svg>
