<?xml version="1.0" encoding="utf-8"?>
<!-- Generator: Adobe Illustrator 25.4.2, SVG Export Plug-In . SVG Version: 6.00 Build 0)  -->
<svg version="1.1" id="레이어_1" xmlns="http://www.w3.org/2000/svg" xmlns:xlink="http://www.w3.org/1999/xlink" x="0px"
	 y="0px" viewBox="0 0 40.2 40.2" style="enable-background:new 0 0 40.2 40.2;" xml:space="preserve">
<style type="text/css">
	.st0{fill:#333333;}
</style>
<path class="st0" d="M20.1,0.1c-11,0-20,9-20,20c0,11,9,20,20,20s20-9,20-20C40.1,9,31.1,0.1,20.1,0.1z M7.7,17.3
	c0.1-0.4,0.5-0.6,0.9-0.6h7.9L19,9.1c0.1-0.4,0.5-0.6,0.9-0.6c0.4,0,0.7,0.3,0.9,0.6l2.5,7.6h7.9c0.4,0,0.7,0.3,0.9,0.6
	c0.1,0.4,0,0.8-0.3,1l-0.6,0.4l-0.3,0.2l-0.3,0.2l-0.6,0.4l-1,0.7l-1.6,1.2l-1,0.7c-0.3,0-0.6,0-0.9,0.1c-1.7,0.1-3.5,0.1-5.3,0.1
	c-2,0-4-0.1-5.8-0.2c-0.3,0-0.7,0-1-0.1l-2.5-1.8l-1.6-1.1l-0.5-0.4L8,18.3C7.7,18.1,7.6,17.7,7.7,17.3z M31.3,24.7
	c-1.1,0.1-2.3,0.3-3.6,0.4c-0.6,0-1.1,0.1-1.7,0.1l0.5,1.6l1.2,3.7c0.1,0.4,0,0.8-0.3,1c-0.2,0.1-0.3,0.2-0.5,0.2s-0.4-0.1-0.5-0.2
	L20,27l-0.1-0.1L19.7,27l-6.3,4.6c-0.3,0.2-0.8,0.2-1.1,0c-0.3-0.2-0.5-0.6-0.3-1l1.2-3.7l0.5-1.6c-0.6,0-1.2-0.1-1.7-0.1
	c-1.1-0.1-2.2-0.2-3.2-0.3c-4.6-0.6-5.2-1.4-5.2-2.1c0-0.7,0.6-1.5,4.6-2l1.6,1.1c0,0-0.1,0-0.1,0C7,22,5.8,22.4,5.3,22.6
	c0.5,0.2,1.7,0.6,4.4,0.9c0.9,0.1,1.8,0.2,2.8,0.3c0.6,0,1.1,0.1,1.7,0.1C16,23.9,18,24,20.1,24c1.9,0,3.7,0,5.4-0.1
	c0.6,0,1.2-0.1,1.7-0.1c1.2-0.1,2.3-0.2,3.3-0.3c2.7-0.3,3.9-0.7,4.4-0.9c-0.5-0.2-1.7-0.6-4.4-0.9c-0.2,0-0.4,0-0.6-0.1l1.6-1.1
	c4.4,0.6,5,1.4,5,2.1C36.5,23.3,35.9,24.1,31.3,24.7z"/>
</svg>
