<?xml version="1.0" encoding="utf-8"?>
<!-- Generator: Adobe Illustrator 25.4.2, SVG Export Plug-In . SVG Version: 6.00 Build 0)  -->
<svg version="1.1" id="레이어_1" xmlns="http://www.w3.org/2000/svg" xmlns:xlink="http://www.w3.org/1999/xlink" x="0px"
	 y="0px" viewBox="0 0 40 40.1" style="enable-background:new 0 0 40 40.1;" xml:space="preserve">
<style type="text/css">
	.st0{fill:#999999;}
</style>
<g>
	<g>
		<path class="st0" d="M10,0H2C0.9,0,0,0.9,0,2v8c0,1.1,0.9,2,2,2h8c1.1,0,2-0.9,2-2V2C12,0.9,11.1,0,10,0z"/>
		<path class="st0" d="M24,0h-8c-1.1,0-2,0.9-2,2v8c0,1.1,0.9,2,2,2h8c1.1,0,2-0.9,2-2V2C26,0.9,25.1,0,24,0z"/>
		<path class="st0" d="M38,0h-8c-1.1,0-2,0.9-2,2v8c0,1.1,0.9,2,2,2h8c1.1,0,2-0.9,2-2V2C40,0.9,39,0,38,0z"/>
		<path class="st0" d="M10,14H2c-1.1,0-2,0.9-2,2v8c0,1.1,0.9,2,2,2h8c1.1,0,2-0.9,2-2v-8C12,14.9,11.1,14,10,14z"/>
		<path class="st0" d="M24,14h-8c-1.1,0-2,0.9-2,2v8c0,1.1,0.9,2,2,2h8c1.1,0,2-0.9,2-2v-8C26,14.9,25.1,14,24,14z"/>
		<path class="st0" d="M38,14h-8c-1.1,0-2,0.9-2,2v8c0,1.1,0.9,2,2,2h8c1.1,0,2-0.9,2-2v-8C40,14.9,39,14,38,14z"/>
		<path class="st0" d="M10,28H2c-1.1,0-2,0.9-2,2v8c0,1.1,0.9,2,2,2h8c1.1,0,2-0.9,2-2v-8C12,28.9,11.1,28,10,28z"/>
		<path class="st0" d="M24,28h-8c-1.1,0-2,0.9-2,2v8c0,1.1,0.9,2,2,2h8c1.1,0,2-0.9,2-2v-8C26,28.9,25.1,28,24,28z"/>
		<path class="st0" d="M38,28h-8c-1.1,0-2,0.9-2,2v8c0,1.1,0.9,2,2,2h8c1.1,0,2-0.9,2-2v-8C40,28.9,39,28,38,28z"/>
	</g>
</g>
</svg>
