<?xml version="1.0" encoding="utf-8"?>
<!-- Generator: Adobe Illustrator 25.4.2, SVG Export Plug-In . SVG Version: 6.00 Build 0)  -->
<svg version="1.1" id="레이어_1" xmlns="http://www.w3.org/2000/svg" xmlns:xlink="http://www.w3.org/1999/xlink" x="0px"
	 y="0px" viewBox="0 0 24 17" style="enable-background:new 0 0 24 17;" xml:space="preserve">
<style type="text/css">
	.st0{fill:#FFFFFF;}
</style>
<g>
	<g>
		<polygon class="st0" points="0,4 0,14.2 8.1,9.1 		"/>
		<path class="st0" d="M22.8,0.1H1.2C0.5,0.1,0,0.6,0,1.3v1.3l9.2,5.9l1.1,0.7l1.7,1.1l1.8-1.1l1.1-0.7L24,2.7V1.3
			C24,0.6,23.5,0.1,22.8,0.1z"/>
		<polygon class="st0" points="24,14.2 24,4.1 16,9.1 		"/>
		<path class="st0" d="M12,11.6L9.2,9.8L0,15.7v0c0,0.7,0.5,1.2,1.2,1.2h21.6c0.7,0,1.2-0.5,1.2-1.2v-0.1l-9.1-5.8L12,11.6z"/>
	</g>
</g>
</svg>
