<?xml version="1.0" encoding="utf-8"?>
<!-- Generator: Adobe Illustrator 25.4.2, SVG Export Plug-In . SVG Version: 6.00 Build 0)  -->
<svg version="1.1" id="레이어_1" xmlns="http://www.w3.org/2000/svg" xmlns:xlink="http://www.w3.org/1999/xlink" x="0px"
	 y="0px" viewBox="0 0 120 165.9" style="enable-background:new 0 0 120 165.9;" xml:space="preserve">
<style type="text/css">
	.st0{fill:#FFFFFF;}
</style>
<g>
	<path class="st0" d="M35.4,94.1v11.1c0,1.9,1.6,3.5,3.5,3.5s3.5-1.6,3.5-3.5V94.1c0-9.3,7.1-16.9,15.8-16.9h3.5
		c6.6,0,12.2,4.4,14.6,10.5H63.5c-1.9,0-3.5,1.6-3.5,3.5s1.6,3.5,3.5,3.5h14v3.5h-14c-1.9,0-3.5,1.6-3.5,3.5s1.6,3.5,3.5,3.5h14
		c0,1.9,1.6,3.5,3.5,3.5s3.5-1.6,3.5-3.5V94.1c0-8.7-4.4-16.2-11-20.4c6.6-4.2,11-11.8,11-20.4V42.1c0-1.9-1.6-3.5-3.5-3.5
		s-3.5,1.6-3.5,3.5v11.1c0,9.3-7.1,16.9-15.8,16.9h-3.5c-6.6,0-12.2-4.4-14.6-10.5h12.8c1.9,0,3.5-1.6,3.5-3.5s-1.6-3.5-3.5-3.5h-14
		v-3.5h14c1.9,0,3.5-1.6,3.5-3.5s-1.6-3.5-3.5-3.5h-14c0-1.9-1.6-3.5-3.5-3.5s-3.5,1.6-3.5,3.5v11.1c0,8.7,4.4,16.2,11,20.4
		C39.8,77.9,35.4,85.5,35.4,94.1z"/>
	<path class="st0" d="M86,139.7c0.5-1.1,0.3-2.5-0.5-3.4l-22.6-25.5c-0.6-0.7-1.5-1.1-2.5-1.1l0,0c-0.9,0-1.8,0.4-2.5,1.1
		l-23.4,25.5c-0.9,0.9-1.1,2.3-0.5,3.4c0.5,1.1,1.7,1.9,3,1.9h10v21.1c0,1.8,1.5,3.2,3.3,3.2H70c1.8,0,3.3-1.4,3.3-3.2v-21.1H83
		C84.3,141.6,85.5,140.9,86,139.7z"/>
	<path class="st0" d="M120,31.2L120,31.2L120,31.2C120,31.1,120,31.1,120,31.2c0-0.1,0-0.1,0-0.2v-0.1c0-0.1,0-0.1,0-0.2l0,0l0,0
		l0,0l0,0c0-0.2-0.1-0.3-0.2-0.5c0-0.1-0.1-0.2-0.1-0.2c-0.1-0.3-0.3-0.5-0.6-0.8l0,0l0,0l0,0l0,0l0,0L90.9,1l0,0l0,0l0,0l0,0l0,0
		c0,0-0.1,0-0.1-0.1c-0.3-0.3-0.6-0.4-0.9-0.6l-0.1-0.1l0,0l0,0c-0.1,0-0.1,0-0.2,0c-0.3-0.1-0.6-0.1-1-0.2c-0.1,0-0.1,0-0.2,0l0,0
		H7C3.1,0,0,3.1,0,7v140.3c0,3.9,3.1,7,7,7h28.4c1.9,0,3.5-1.6,3.5-3.5s-1.6-3.5-3.5-3.5H7V7h77.9v24.6c0,1.9,1.6,3.5,3.5,3.5H113
		v112.3H84.6c-1.9,0-3.5,1.6-3.5,3.5s1.6,3.5,3.5,3.5H113c3.9,0,7-3.1,7-7V31.6C120,31.5,120,31.3,120,31.2z M91.9,28.1V12L108,28.1
		H91.9z"/>
</g>
</svg>
