<?xml version="1.0" encoding="utf-8"?>
<!-- Generator: Adobe Illustrator 25.4.2, SVG Export Plug-In . SVG Version: 6.00 Build 0)  -->
<svg version="1.1" id="레이어_1" xmlns="http://www.w3.org/2000/svg" xmlns:xlink="http://www.w3.org/1999/xlink" x="0px"
	 y="0px" viewBox="0 0 24 24" style="enable-background:new 0 0 24 24;" xml:space="preserve">
<style type="text/css">
	.st0{fill:#3C5998;}
	.st1{fill:#FFFFFF;}
</style>
<g>
	<path class="st0" d="M22.7,24c0.7,0,1.3-0.6,1.3-1.3V1.3C24,0.6,23.4,0,22.7,0H1.3C0.6,0,0,0.6,0,1.3v21.4C0,23.4,0.6,24,1.3,24
		H22.7z"/>
	<path class="st1" d="M16.6,24v-9.3h3.1l0.5-3.6h-3.6V8.8c0-1,0.3-1.8,1.8-1.8l1.9,0V3.8c-0.3,0-1.5-0.1-2.8-0.1
		c-2.8,0-4.7,1.7-4.7,4.8v2.7H9.7v3.6h3.1V24H16.6z"/>
</g>
</svg>
