<?xml version="1.0" encoding="utf-8"?>
<!-- Generator: Adobe Illustrator 25.4.2, SVG Export Plug-In . SVG Version: 6.00 Build 0)  -->
<svg version="1.1" id="레이어_1" xmlns="http://www.w3.org/2000/svg" xmlns:xlink="http://www.w3.org/1999/xlink" x="0px"
	 y="0px" viewBox="0 0 266 138" style="enable-background:new 0 0 266 138;" xml:space="preserve">
<style type="text/css">
	.st0{fill:#F3F3F3;}
	.st1{fill:#C7C7C7;}
</style>
<g>
	<g>
		<path class="st0" d="M12.9,48.6H3.4c-1.7,0-3,1.3-3,3s1.3,3,3,3h9.5c8,0,14.4,6,14.4,13.5v3c0,5.6-3.7,10.4-9,12.5v-11
			c0-1.7-1.3-3-3-3s-3,1.3-3,3v12h-3v-12c0-1.7-1.3-3-3-3s-3,1.3-3,3v12c-1.7,0-3,1.3-3,3c0,1.7,1.3,3,3,3h9.5
			c7.4,0,13.8-3.8,17.4-9.4c3.3,5.2,9.1,8.8,15.8,9.3v0.1h1.6h9.5h30.5v-6H57.3h-9.5c-8,0-14.4-6-14.4-13.5v-3
			c0-5.6,3.7-10.4,9-12.5v11c0,1.7,1.3,3,3,3c1.7,0,3-1.3,3-3v-12h1.6h1.4v12c0,1.7,1.3,3,3,3c1.7,0,3-1.3,3-3v-12h34.2v-6H57.3
			h-7.4h-2.1c-7.4,0-13.8,3.8-17.4,9.4C26.8,52.3,20.3,48.6,12.9,48.6z"/>
		<path class="st0" d="M253.1,90.4h9.5c1.7,0,3-1.3,3-3c0-1.7-1.3-3-3-3h-9.5c-8,0-14.4-6-14.4-13.5v-3c0-5.6,3.7-10.4,9-12.5v11
			c0,1.7,1.3,3,3,3s3-1.3,3-3v-12h3v12c0,1.7,1.3,3,3,3c1.7,0,3-1.3,3-3v-12c1.7,0,3-1.3,3-3s-1.3-3-3-3h-9.5
			c-7.4,0-13.8,3.8-17.4,9.4c-3.3-5.2-9.1-8.8-15.8-9.3v-0.1h-1.6h-9.5h-30.5v6h30.5h9.5c8,0,14.4,6,14.4,13.5v3
			c0,5.6-3.7,10.4-9,12.5v-11c0-1.7-1.3-3-3-3s-3,1.3-3,3v12h-1.6h-1.4v-12c0-1.7-1.3-3-3-3c-1.7,0-3,1.3-3,3v12h-34.2v6h34.2h7.4
			h2.1c7.4,0,13.8-3.8,17.4-9.4C239.2,86.7,245.7,90.4,253.1,90.4z"/>
	</g>
	<circle class="st0" cx="133" cy="69.5" r="68.9"/>
	<g>
		<path class="st1" d="M169,99.3c-2.7-17.9-9.5-28.8-15-34.9c8.1-2.3,14.1-9.8,14.1-18.7c0-10.7-8.7-19.4-19.4-19.4
			c-6.5,0-12.2,3.1-15.7,8c-3.5-4.8-9.2-8-15.7-8c-10.7,0-19.4,8.7-19.4,19.4c0,8.9,5.9,16.3,14.1,18.7c-5.4,6.1-12.3,17.1-15,34.9
			c-3.2,0.5-5.7,3.3-5.7,6.7c0,3.7,3,6.8,6.8,6.8s6.8-3,6.8-6.8c0-2.9-1.9-5.4-4.5-6.3c2.8-18.6,10.5-29.3,15.6-34.6
			c0.4,0,0.9,0,1.3,0c6.5,0,12.2-3.1,15.7-8c3.5,4.8,9.2,8,15.7,8c0.4,0,0.9,0,1.3,0c5.2,5.3,12.8,16,15.6,34.6
			c-2.6,0.9-4.5,3.4-4.5,6.3c0,3.7,3,6.8,6.8,6.8s6.8-3,6.8-6.8C174.7,102.6,172.2,99.8,169,99.3z M116.5,56.7c-6.1,0-11-4.9-11-11
			s4.9-11,11-11c5.2,0,9.6,3.7,10.7,8.6c0.2,0.8,0.3,1.6,0.3,2.4c0,1.2-0.2,2.4-0.6,3.6C125.4,53.6,121.3,56.7,116.5,56.7z
			 M138.6,45.7c0-6.1,4.9-11,11-11c6.1,0,11,4.9,11,11s-4.9,11-11,11C143.5,56.7,138.6,51.8,138.6,45.7z"/>
		<circle class="st1" cx="149.5" cy="46.1" r="2.5"/>
		<circle class="st1" cx="116.5" cy="46.1" r="2.5"/>
	</g>
</g>
</svg>
