<?xml version="1.0" encoding="utf-8"?>
<!-- Generator: Adobe Illustrator 25.4.2, SVG Export Plug-In . SVG Version: 6.00 Build 0)  -->
<svg version="1.1" id="레이어_1" xmlns="http://www.w3.org/2000/svg" xmlns:xlink="http://www.w3.org/1999/xlink" x="0px"
	 y="0px" viewBox="0 0 60 40.1" style="enable-background:new 0 0 60 40.1;" xml:space="preserve">
<style type="text/css">
	.st0{fill:#333333;}
</style>
<g>
	<g>
		<path class="st0" d="M18,24c-4.4,0-8,3.6-8,8s3.6,8,8,8s8-3.6,8-8S22.3,24,18,24z M18,36c-2.2,0-4-1.8-4-4s1.8-4,4-4s4,1.8,4,4
			S20.1,36,18,36z"/>
		<path class="st0" d="M42,24c-4.4,0-8,3.6-8,8s3.6,8,8,8s8-3.6,8-8S46.3,24,42,24z M42,36c-2.2,0-4-1.8-4-4s1.8-4,4-4s4,1.8,4,4
			S44.1,36,42,36z"/>
		<path class="st0" d="M31,22.3l-5.8-3.5l7-5.8l2,3.9c0.3,0.7,1,1.1,1.8,1.1h8c1.1,0,2-0.9,2-2s-0.9-2-2-2h-6.8l-3.4-6.9
			C33.5,6.6,33,6.2,32.4,6c-0.6-0.1-1.2,0-1.7,0.4l-12,10c-0.5,0.4-0.8,1-0.7,1.7c0,0.6,0.4,1.2,1,1.6l9,5.4V36c0,1.1,0.9,2,2,2
			s2-0.9,2-2V24C32,23.3,31.6,22.6,31,22.3z"/>
		<circle class="st0" cx="38" cy="4" r="4"/>
	</g>
</g>
</svg>
