<?xml version="1.0" encoding="utf-8"?>
<!-- Generator: Adobe Illustrator 25.4.2, SVG Export Plug-In . SVG Version: 6.00 Build 0)  -->
<svg version="1.1" id="레이어_1" xmlns="http://www.w3.org/2000/svg" xmlns:xlink="http://www.w3.org/1999/xlink" x="0px"
	 y="0px" viewBox="0 0 60 40.1" style="enable-background:new 0 0 60 40.1;" xml:space="preserve">
<style type="text/css">
	.st0{fill:#00B4E6;}
</style>
<g>
	<g>
		<path class="st0" d="M21.1,17.6c-0.2,1.8-1.6,6.1-3.6,11.7l-0.2,0.5c-0.3,0.7-0.1,1.5,0.5,2.1l0,0c0.5,0.5,1.4,0.7,2.1,0.5
			l0.7-0.3c5.5-2,9.8-3.3,11.5-3.5c2.8-0.3,5.6-2.1,7.3-4.5c1.1-1.6,2.2-4.2,1.5-7.8c0.8-0.1,1.5-0.5,2.1-1.1l7-6.9l-8.4-8.3l-7,6.9
			c-0.6,0.6-1,1.3-1.1,2.1c-3.6-0.7-6.3,0.4-7.8,1.4C23.3,12.1,21.4,14.9,21.1,17.6z M27.8,13.7c1.5-1,3.3-1.3,5.4-0.7
			c1.6,0.4,2.4,0.8,2.8,1c0,0,0.1,0,0.1,0.1l0,0c0,0.2,0,0.4,0.1,0.6c0.2,0.5,0.3,1.1,0.5,1.8c0.5,2.1,0.3,3.9-0.7,5.4
			c-0.3,0.5-0.7,0.9-1.2,1.3c-1.1-0.8-2.6-1.6-4.2-1.6c-4,0-5.1-3.4-4.8-5.7C26.3,15,27.1,14.2,27.8,13.7z"/>
		<path class="st0" d="M31.8,40H12c-1.1,0-2-0.9-2-2s0.9-2,2-2h19.8c1.1,0,2,0.9,2,2S32.8,40,31.8,40z"/>
	</g>
</g>
</svg>
