<?xml version="1.0" encoding="utf-8"?>
<!-- Generator: Adobe Illustrator 25.4.2, SVG Export Plug-In . SVG Version: 6.00 Build 0)  -->
<svg version="1.1" id="레이어_1" xmlns="http://www.w3.org/2000/svg" xmlns:xlink="http://www.w3.org/1999/xlink" x="0px"
	 y="0px" viewBox="0 0 45 45" style="enable-background:new 0 0 45 45;" xml:space="preserve">
<style type="text/css">
	.st0{fill:#C7C7C7;}
</style>
<path class="st0" d="M22.5,0C10.1,0,0,10.1,0,22.5C0,34.9,10.1,45,22.5,45S45,34.9,45,22.5C45,10.1,34.9,0,22.5,0z M33.8,24.8h-9v9
	c0,1.2-1,2.2-2.2,2.2s-2.2-1-2.2-2.2v-9h-9c-1.2,0-2.2-1-2.2-2.2s1-2.2,2.2-2.2h9v-9c0-1.2,1-2.2,2.2-2.2s2.2,1,2.2,2.2v9h9
	c1.2,0,2.2,1,2.2,2.2S35,24.8,33.8,24.8z"/>
</svg>
