<?xml version="1.0" encoding="utf-8"?>
<!-- Generator: Adobe Illustrator 25.4.2, SVG Export Plug-In . SVG Version: 6.00 Build 0)  -->
<svg version="1.1" id="레이어_1" xmlns="http://www.w3.org/2000/svg" xmlns:xlink="http://www.w3.org/1999/xlink" x="0px"
	 y="0px" viewBox="0 0 60 60" style="enable-background:new 0 0 60 60;" xml:space="preserve">
<style type="text/css">
	.st0{fill:#333333;}
	.st1{fill:#FFFFFF;}
</style>
<g>
	<path class="st0" d="M57,0.4H3c-1.7,0-3,1.3-3,3v54c0,1.7,1.3,3,3,3h54c1.7,0,3-1.3,3-3v-54C60,1.7,58.7,0.4,57,0.4z"/>
	<path class="st1" d="M37.5,48.4c1.2,0,2.5-0.5,3.3-1.5c1.7-1.8,1.5-4.7-0.3-6.4L29.2,30.4l11.3-10.2c1.8-1.7,2-4.5,0.3-6.4
		s-4.5-2-6.4-0.3L19.5,27c-0.9,0.9-1.5,2.1-1.5,3.3s0.5,2.5,1.5,3.3l15,13.5C35.3,48,36.4,48.4,37.5,48.4z"/>
</g>
</svg>
