<?xml version="1.0" encoding="utf-8"?>
<!-- Generator: Adobe Illustrator 25.4.2, SVG Export Plug-In . SVG Version: 6.00 Build 0)  -->
<svg version="1.1" id="레이어_1" xmlns="http://www.w3.org/2000/svg" xmlns:xlink="http://www.w3.org/1999/xlink" x="0px"
	 y="0px" viewBox="0 0 60 60" style="enable-background:new 0 0 60 60;" xml:space="preserve">
<style type="text/css">
	.st0{opacity:0.75;}
	.st1{fill:#FFFFFF;}
	.st2{fill:#333333;}
</style>
<g>
	<g class="st0">
		<rect x="6" y="6.4" class="st1" width="48" height="48"/>
	</g>
	<g>
		<g>
			<path class="st2" d="M57,0.4H3c-1.7,0-3,1.3-3,3v54c0,1.7,1.3,3,3,3h54c1.7,0,3-1.3,3-3v-54C60,1.7,58.7,0.4,57,0.4z M54,54.4H6
				v-48h48V54.4z"/>
		</g>
		<path class="st2" d="M22.5,48.4c-1.2,0-2.5-0.5-3.3-1.5c-1.7-1.8-1.5-4.7,0.3-6.4l11.3-10.2L19.5,20.2c-1.8-1.7-2-4.5-0.3-6.4
			c1.7-1.9,4.5-2,6.4-0.3l15,13.5c0.9,0.9,1.5,2.1,1.5,3.3s-0.5,2.5-1.5,3.3l-15,13.5C24.6,48,23.6,48.4,22.5,48.4z"/>
	</g>
</g>
</svg>
