<?xml version="1.0" encoding="utf-8"?>
<!-- Generator: Adobe Illustrator 25.4.2, SVG Export Plug-In . SVG Version: 6.00 Build 0)  -->
<svg version="1.1" id="레이어_1" xmlns="http://www.w3.org/2000/svg" xmlns:xlink="http://www.w3.org/1999/xlink" x="0px"
	 y="0px" viewBox="0 0 70.5 50.6" style="enable-background:new 0 0 70.5 50.6;" xml:space="preserve">
<style type="text/css">
	.st0{fill:url(#SVGID_1_);}
	.st1{fill:url(#SVGID_00000101075391231259731500000017185971198667323780_);}
</style>
<g>
	<radialGradient id="SVGID_1_" cx="34.6915" cy="0.6268" r="50.8598" gradientUnits="userSpaceOnUse">
		<stop  offset="0" style="stop-color:#FF0000"/>
		<stop  offset="0.1667" style="stop-color:#FFFF00"/>
		<stop  offset="0.207" style="stop-color:#C5FF00"/>
		<stop  offset="0.2992" style="stop-color:#37FF00"/>
		<stop  offset="0.3334" style="stop-color:#00FF00"/>
		<stop  offset="0.5" style="stop-color:#00FFFF"/>
		<stop  offset="0.6573" style="stop-color:#000FFF"/>
		<stop  offset="0.6667" style="stop-color:#0000FF"/>
		<stop  offset="0.8334" style="stop-color:#FF00FF"/>
		<stop  offset="1" style="stop-color:#FF0000"/>
	</radialGradient>
	<path class="st0" d="M9.3,21.8l1.4,1h0l1.2,0.9l3.4,2.4l5.3,3.9c0.7,0,1.4,0.1,2.1,0.1c4,0.2,8.2,0.3,12.5,0.3
		c3.9,0,7.8-0.1,11.5-0.3c0.7,0,1.3-0.1,2-0.1h0l2.1-1.5l3.5-2.5l2.1-1.6l1.3-0.9l0.5-0.4l0.6-0.5l1.3-0.9c0.7-0.5,1-1.4,0.7-2.2
		c-0.3-0.8-1-1.4-1.9-1.4H41.8L36.6,2c-0.3-0.8-1-1.4-1.9-1.4S33.1,1.2,32.8,2l-5.3,16.2H10.5c-0.9,0-1.6,0.5-1.9,1.4
		C8.3,20.4,8.6,21.3,9.3,21.8z"/>
	
		<radialGradient id="SVGID_00000066477377676252807800000008294781979646789811_" cx="34.5056" cy="0.3559" r="50.8688" gradientUnits="userSpaceOnUse">
		<stop  offset="0" style="stop-color:#FF0000"/>
		<stop  offset="0.1667" style="stop-color:#FFFF00"/>
		<stop  offset="0.207" style="stop-color:#C5FF00"/>
		<stop  offset="0.2992" style="stop-color:#37FF00"/>
		<stop  offset="0.3334" style="stop-color:#00FF00"/>
		<stop  offset="0.5" style="stop-color:#00FFFF"/>
		<stop  offset="0.6573" style="stop-color:#000FFF"/>
		<stop  offset="0.6667" style="stop-color:#0000FF"/>
		<stop  offset="0.8334" style="stop-color:#FF00FF"/>
		<stop  offset="1" style="stop-color:#FF0000"/>
	</radialGradient>
	<path style="fill:url(#SVGID_00000066477377676252807800000008294781979646789811_);" d="M59.7,26.4l-3.4,2.5
		c0.4,0,0.8,0.1,1.2,0.1c5.8,0.7,8.3,1.5,9.4,1.9c-1.1,0.5-3.6,1.2-9.4,1.9c-2.1,0.3-4.5,0.5-7,0.6c-1.2,0.1-2.4,0.2-3.7,0.2
		c-3.7,0.2-7.6,0.3-11.6,0.3c-4.4,0-8.7-0.1-12.7-0.3c0,0,0,0,0,0c-1.3-0.1-2.5-0.1-3.7-0.2c-2.1-0.2-4.1-0.3-6-0.6
		c-5.8-0.7-8.3-1.5-9.4-1.9c1.1-0.5,3.6-1.2,9.4-1.9c0.1,0,0.2,0,0.3,0l-3.4-2.4C1.2,27.8,0,29.4,0,31c0,1.6,1.3,3.3,11.1,4.6
		c2.1,0.3,4.3,0.5,6.8,0.7c1.2,0.1,2.4,0.2,3.7,0.2L20.5,40L17.9,48c-0.3,0.8,0,1.7,0.7,2.2c0.7,0.5,1.6,0.5,2.3,0l13.5-9.8l0.3-0.2
		l0.3,0.2l13.5,9.8c0.3,0.3,0.8,0.4,1.2,0.4s0.8-0.1,1.2-0.4c0.7-0.5,1-1.4,0.7-2.2l-2.6-8l-1.1-3.5c1.3-0.1,2.5-0.1,3.7-0.2
		c2.8-0.2,5.5-0.5,7.8-0.8c9.8-1.3,11.1-3,11.1-4.6C70.5,29.4,69.1,27.7,59.7,26.4z"/>
</g>
</svg>
